<svg version="1.1" id="图层_1" xmlns="http://www.w3.org/2000/svg" x="0" y="0" width="46" height="63.8" xml:space="preserve"><style>.st0{fill:#fff}</style><path class="st0" d="M29 30.9C18.6 18.7 17.6 14.3 17.6 13.7c-.1.6-1.1 5-11.4 17.2C-6 45.2 1 63 17.5 63.8h.2C34.1 63 41.1 45.2 29 30.9zm-9.4 26.6c-.2 1-1.1 1.6-2 1.6h-.5C6.9 56.7 4.9 47.6 5.3 43.1c.1-1.1 1.1-2 2.2-1.9 1.1.1 2 1.1 1.9 2.2 0 .4-.7 9.5 8.7 11.7 1.1.2 1.8 1.3 1.5 2.4zM42.9 8.6C37.7 2.5 37.2.3 37.2 0c0 .3-.5 2.5-5.7 8.6-6.1 7.1-2.6 16.1 5.7 16.5h.1c8.2-.4 11.7-9.3 5.6-16.5zM38.2 22c-.1.5-.5.8-1 .8H37c-5.2-1.2-6.1-5.8-5.9-8 0-.6.5-1 1.1-.9.6.1 1 .5.9 1.1 0 .2-.3 4.8 4.4 5.8.5.1.9.6.7 1.2z"/></svg>