<svg version="1.1" id="图层_1" xmlns="http://www.w3.org/2000/svg" xmlns:xlink="http://www.w3.org/1999/xlink" x="0" y="0" width="252" height="297.7" xml:space="preserve"><style>.st0{fill:#d6d7d7}.st1{fill:#747577}.st2{fill:#eaeaea}</style><path class="st0" d="M4.9 203.8c-2.5 0-4.5 20.9-4.5 46.7 0 25.8 2 46.7 4.5 46.7h12.8v-93.5H4.9z"/><ellipse class="st1" cx="17.8" cy="250.6" rx="4.5" ry="46.7"/><path class="st0" d="M247.1 203.8c2.5 0 4.5 20.9 4.5 46.7 0 25.8-2 46.7-4.5 46.7h-12.8v-93.5h12.8z"/><ellipse class="st1" cx="234.3" cy="250.6" rx="4.5" ry="46.7"/><path class="st0" d="M14.3 226.1H238v49H14.3z"/><path class="st1" d="M238 275.5H14.3c-.2 0-.4-.2-.4-.4v-49c0-.2.2-.4.4-.4H238c.2 0 .4.2.4.4v49c0 .2-.2.4-.4.4zm-223.3-.9h222.8v-48.1H14.7v48.1z"/><path class="st0" d="M55.1 226.7v48.1h.6C60.2 285.6 91 294 128.3 294s68.1-8.4 72.6-19.2h.6v-48.1H55.1z"/><ellipse class="st2" cx="128.4" cy="226.7" rx="73.3" ry="22"/><path class="st1" d="M128.4 249.1c-40.6 0-73.7-10.1-73.7-22.4s33.1-22.4 73.7-22.4 73.7 10.1 73.7 22.4-33.1 22.4-73.7 22.4zm0-43.9c-40.2 0-72.8 9.7-72.8 21.5 0 11.9 32.7 21.5 72.8 21.5 40.2 0 72.8-9.7 72.8-21.5 0-11.9-32.7-21.5-72.8-21.5z"/><path class="st0" d="M81.7 208.6v10.2h.2c2.2 8.8 22.2 15.6 46.5 15.6s44.3-6.9 46.5-15.6h.2v-10.2H81.7z"/><path class="st1" d="M128.4 234.8c-24.2 0-44.2-6.7-46.8-15.7-.2-.1-.3-.2-.3-.4v-10.2c0-.2.2-.4.4-.4h93.5c.2 0 .4.2.4.4v10.2c0 .2-.1.4-.3.4-2.7 9-22.7 15.7-46.9 15.7zm-46.3-16.4c.1.1.2.2.2.3 2.1 8.6 22.4 15.3 46.1 15.3 23.7 0 44-6.7 46.1-15.3 0-.1.1-.2.2-.3V209H82.1v9.4z"/><path class="st2" d="M182 198.7c-10.9-4.7-30.8-7.8-53.6-7.8s-42.7 3.1-53.6 7.8h-9v8.2c0 8.9 28 16 62.6 16s62.6-7.2 62.6-16v-8.2h-9z"/><ellipse class="st1" cx="128.4" cy="198.7" rx="62.6" ry="16"/><path class="st2" d="M182 186.8c-10.9-4.7-30.8-7.8-53.6-7.8s-42.7 3.1-53.6 7.8h-9v8.2c0 8.9 28 16 62.6 16s62.6-7.2 62.6-16v-8.2h-9z"/><ellipse class="st0" cx="128.4" cy="186.7" rx="62.6" ry="16"/><path class="st1" d="M185.9 171.4v-127H67v127c0 .2-.1.3-.1.5 0 10.5 26.7 19 59.5 19 32.9 0 59.5-8.5 59.5-19 .1-.2 0-.3 0-.5z"/><defs><path id="SVGID_1_" d="M185.8 50.3C185 61.8 158.7 71 126.3 71s-58.6-9.2-59.5-20.6v115.2c0 .2-.1.3-.1.5 0 10.5 26.7 19 59.5 19 32.9 0 59.5-8.5 59.5-19 0-.2-.1-.3-.1-.5V50.3z"/></defs><clipPath id="SVGID_2_"><use xlink:href="#SVGID_1_" overflow="visible"/></clipPath><g clip-path="url(#SVGID_2_)"><path class="st0" d="M125.1 9.5h2.6v214.8h-2.6zm-57.9 0h2.6v214.8h-2.6zm5.3 0h2.6v214.8h-2.6zm5.8 0h2.6v214.8h-2.6zm6.7 0h2.6v214.8H85zm6.6 0h2.6v214.8h-2.6zm16 0h2.6v214.8h-2.6zm-8.4 0h2.6v214.8h-2.6zm17.4 0h2.6v214.8h-2.6zm67.3 0h2.6v214.8h-2.6zm-5.3 0h2.6v214.8h-2.6zm-5.7 0h2.6v214.8h-2.6zm-6.7 0h2.6v214.8h-2.6zm-6.7 0h2.6v214.8h-2.6zm-7.5 0h2.6v214.8H152zm-8.5 0h2.6v214.8h-2.6zm-9 0h2.6v214.8h-2.6z"/></g><circle class="st0" cx="126.4" cy="127.2" r="35"/><path class="st1" d="M126.4 162.6c-19.6 0-35.5-15.9-35.5-35.5s15.9-35.5 35.5-35.5c19.5 0 35.5 15.9 35.5 35.5s-15.9 35.5-35.5 35.5zm0-70c-19.1 0-34.6 15.5-34.6 34.6s15.5 34.6 34.6 34.6 34.6-15.5 34.6-34.6-15.5-34.6-34.6-34.6z"/><ellipse class="st2" cx="126.4" cy="43.3" rx="59.5" ry="22"/><path class="st2" d="M66.9 22.9h118.9v21.5H66.9z"/><ellipse class="st2" cx="126.4" cy="22.4" rx="59.5" ry="22"/><path class="st1" d="M126.3 43.7c-33.1 0-60-9.7-60-21.6 0-.2.2-.4.4-.4s.4.2.4.4c0 11.5 26.5 20.8 59.1 20.8s59.1-9.3 59.1-20.8c0-.2.2-.4.4-.4s.4.2.4.4c.2 11.9-26.7 21.6-59.8 21.6z"/><ellipse class="st0" cx="126" cy="13.8" rx="49.9" ry="13.4"/><path class="st1" d="M129.9 126.3c-.1-.3-.2-.6-.4-.9 2.1-6 14 .7 15.6-3.9 2.1-9.6-6.6-14-10.2-14-9.5.5-9.7 12.3-9.5 16.3l-.9.3c-6-2.1.7-14-3.9-15.6-9.6-2.1-14 6.6-14 10.2.5 9.5 12.3 9.7 16.3 9.5l.3.9c-2.1 6-14-.7-15.6 3.9-2.1 9.6 6.6 14 10.2 14 9.5-.5 9.6-12.3 9.5-16.3l.9-.3c6 2.1-.7 14 3.9 15.6 9.6 2.1 14-6.6 14-10.2-.5-9.5-12.3-9.7-16.2-9.5zm-3.5 3.4c-1.4 0-2.6-1.1-2.6-2.6 0-1.4 1.1-2.6 2.6-2.6 1.4 0 2.6 1.1 2.6 2.6s-1.2 2.6-2.6 2.6zm0 0"/><path d="M117.9 147.3c-2.3 0-6.1-1.6-8.5-4.6-1.5-1.9-3.2-5.2-2.1-10 .9-2.5 4-2.2 7.4-1.8 3.5.4 7.1.7 8.2-2-.1-.1-.1-.3-.2-.4-4.1.2-15.9-.2-16.4-9.9 0-2.3 1.6-6.1 4.6-8.5 1.9-1.5 5.2-3.2 10-2.1 2.5.9 2.2 4 1.8 7.4-.4 3.5-.7 7.1 2 8.2.2-.1.3-.1.4-.2-.2-4.1.2-15.9 9.9-16.4 2.3 0 6.1 1.6 8.5 4.6 1.5 1.9 3.2 5.2 2.1 10-.9 2.5-4 2.2-7.4 1.8-3.5-.4-7.1-.7-8.2 2 .1.1.1.3.2.4 4.1-.2 15.9.2 16.4 9.9 0 2.3-1.6 6.1-4.6 8.5-1.9 1.5-5.2 3.2-10 2.1-2.5-.9-2.2-4-1.8-7.4.4-3.5.7-7.1-2-8.2-.1.1-.3.1-.4.2.1 4.2-.3 15.9-9.9 16.4zm-6.5-15.8c-1.6 0-2.9.3-3.3 1.5-.8 3.5-.1 6.6 2 9.2 2.4 2.9 6 4.3 7.8 4.3 9.1-.5 9.2-12.2 9-15.8v-.4l.3-.1c.3-.1.5-.2.7-.3l.2-.1.2.1c3.5 1.2 3.1 5.4 2.7 9.1-.3 3-.6 5.9 1.2 6.5 3.5.8 6.7.1 9.2-2 3-2.4 4.3-6 4.3-7.8-.5-9.1-12.2-9.2-15.8-9h-.3l-.1-.3c-.1-.3-.2-.5-.3-.8l-.1-.2.1-.2c1.2-3.5 5.4-3.1 9.1-2.7 3 .3 5.9.6 6.5-1.2.8-3.5.1-6.6-2-9.2-2.4-3-6-4.3-7.8-4.3-9.1.5-9.2 12.2-9 15.8v.4l-.3.1c-.2.1-.5.2-.8.3l-.2.1-.2-.1c-3.5-1.2-3.1-5.4-2.7-9.1.3-3 .6-5.9-1.2-6.5-3.5-.8-6.6-.1-9.2 2-3 2.4-4.3 6-4.3 7.8.5 9.1 12.2 9.2 15.8 9h.4l.1.3c.1.3.2.5.3.8l.1.2-.1.2c-1.2 3.5-5.4 3.1-9.1 2.7-1.1-.2-2.3-.3-3.2-.3zm15-1.3c-1.6 0-3-1.3-3-3 0-1.6 1.3-3 3-3 1.6 0 3 1.3 3 3 0 1.6-1.3 3-3 3zm0-5.2c-1.2 0-2.1 1-2.1 2.1 0 1.2 1 2.1 2.1 2.1 1.2 0 2.1-1 2.1-2.1s-.9-2.1-2.1-2.1z" fill="#fff"/><path class="st1" d="M247.1 297.7h-12.8c-1.9 0-3.3-7.5-4.2-22.2h-28.9c-5.3 10.9-36.4 19-72.8 19s-67.5-8.2-72.8-19H22c-.9 14.8-2.3 22.2-4.2 22.2H4.9c-3.6 0-4.9-28.2-4.9-47.2s1.3-47.2 4.9-47.2h12.8c1.9 0 3.3 7.5 4.2 22.2h32.9c.7-4.6 5.8-8.9 14.9-12.5-2.9-1.9-4.4-4-4.4-6.1v-8.2c0-.6.1-1.2.4-1.8-.3-.7-.4-1.3-.4-1.8v-8.3c0-2.5 2.1-4.8 6-7-3.3-2.5-4.9-5.1-4.9-7.8 0-.1 0-.3.1-.4V44.7c0-.1-.1-.1-.1-.2V22.7c0-.2-.1-.4-.1-.6 0-.1.1-.2.1-.3.4-4.9 4.9-9.6 13.1-13.4C87.3 3.3 105.5 0 126 0h1.5c1.5 0 3 0 4.4.1h1.5C148.8.8 162.5 3.3 170 7c10.6 4.2 16.4 9.6 16.4 15.4 0 .3-.1.6-.1.9 0 .1 0 .2-.1.4v18.5c0 .1 0 .2.1.3.1.3.1.6.1.9 0 .3-.1.6-.1.8v127.4c0 .1.1.2.1.4 0 2.2-1.2 4.4-3.5 6.5 5.6 2.5 8.5 5.3 8.5 8.3v8.2c0 .6-.1 1.2-.4 1.8.3.7.4 1.3.4 1.8v8.2c0 2.2-1.5 4.2-4.4 6.1 9.1 3.6 14.2 7.9 14.9 12.5H230c.9-14.8 2.3-22.2 4.2-22.2H247c3.6 0 4.9 28.2 4.9 47.2s-1.2 47.3-4.8 47.3zm-46.2-23.1h29.5c.2 0 .4.2.4.4 1.1 17.9 2.8 21.8 3.4 21.8H247c1.5 0 4-15.5 4-46.3s-2.6-46.3-4-46.3h-12.8c-.6 0-2.3 3.9-3.4 21.8 0 .2-.2.4-.4.4h-28.9c-.2 0-.4-.2-.4-.4-.4-4.5-5.7-8.9-15.2-12.5-.2-.1-.3-.2-.3-.4s.1-.3.2-.4c3.1-1.9 4.7-3.9 4.7-5.9v-8.2c0-.5-.1-1.1-.4-1.7-.1-.1-.1-.2 0-.4.3-.6.4-1.2.4-1.7v-8.3c0-2.7-3-5.3-8.6-7.7l-.3-.3c-.1-.1 0-.3.1-.4 2.4-2.1 3.7-4.2 3.7-6.3V44.5c0-.1-.1-.2-.1-.3 0-.1 0-.3.1-.4 0-.2.1-.5.1-.7 0-.2 0-.5-.1-.7 0-.1 0-.3-.1-.4V23.4c0-.2 0-.3.1-.4 0-.3.1-.5.1-.7 0-5.4-5.6-10.6-15.9-14.6-7.4-3.6-21-6.2-36.3-6.8h-1.5c-1.4 0-2.9-.1-4.4-.1h-1.5c-20.3 0-38.4 3.2-46 8.3-8.1 3.8-12.5 8.2-12.7 13 0 .1 0 .2-.1.3v.1c0 .1 0 .2.1.4v21.4c0 .1.1.1.1.2V172c0 2.6 1.7 5.1 5.1 7.5.1.1.2.2.2.4s-.1.3-.2.4c-4 2.1-6.1 4.4-6.1 6.6v8.2c0 .5.1 1.1.4 1.7.1.1.1.2 0 .4-.3.6-.4 1.2-.4 1.7v8.2c0 2 1.6 4 4.7 5.9.1.1.2.2.2.4s-.1.3-.3.4c-9.5 3.6-14.8 8-15.2 12.5 0 .2-.2.4-.4.4H21.6c-.2 0-.4-.2-.4-.4-1.1-17.9-2.8-21.8-3.4-21.8H4.9c-1.5 0-4 15.5-4 46.3s2.6 46.3 4 46.3h12.8c.6 0 2.3-3.9 3.4-21.8 0-.2.2-.4.4-.4h34.3c.2 0 .3.1.4.3C61 285.9 92 294 128.3 294s67.3-8.1 72.1-18.8c.2-.5.3-.6.5-.6z"/></svg>