<?xml version="1.0" standalone="no"?><!DOCTYPE svg PUBLIC "-//W3C//DTD SVG 1.1//EN" "http://www.w3.org/Graphics/SVG/1.1/DTD/svg11.dtd"><svg t="1721183880197" class="icon" viewBox="0 0 1024 1024" version="1.1" xmlns="http://www.w3.org/2000/svg" p-id="11286" width="400" height="400" xmlns:xlink="http://www.w3.org/1999/xlink"><path d="M354.24814 905.281131 103.69264 905.281131c-47.63081 0-86.381369-38.086433-86.381369-84.900645L17.311271 101.150748c0-46.815235 38.750559-84.900645 86.381369-84.900645l577.583694 0c47.63081 0 86.381369 38.086433 86.381369 84.900645l0 260.484639-51.16531 0L716.492394 101.150748c0-18.60166-15.797801-33.735335-35.21606-33.735335L103.69264 67.415412c-19.418258 0-35.21606 15.133675-35.21606 33.735335l0 719.230762c0 18.60166 15.797801 33.735335 35.21606 33.735335l250.554476 0L354.247116 905.281131z" fill="#ffffff" p-id="11287"></path><path d="M182.882214 178.786942l386.707412 0 0 64.450894-386.707412 0 0-64.450894Z" fill="#ffffff" p-id="11288"></path><path d="M182.882214 349.986069l193.353706 0 0 64.450894-193.353706 0 0-64.450894Z" fill="#ffffff" p-id="11289"></path><path d="M982.891743 938.894693 872.954889 828.956815c78.709643-101.137445 71.589478-247.427252-21.37175-340.388481-50.339502-50.339502-116.317169-75.508741-182.295859-75.508741s-131.956358 25.169239-182.295859 75.508741c-100.679004 100.679004-100.679004 263.911692 0 364.591719 50.339502 50.339502 116.317169 75.508741 182.295859 75.508741 55.863309 0 111.722524-18.050098 158.093645-54.138014l109.937878 109.937878L982.891743 938.894693zM669.287279 877.503485c-55.19509 0-107.086947-21.494547-146.115845-60.523445s-60.523445-90.920756-60.523445-146.115845 21.494547-107.086947 60.523445-146.115845c39.028898-39.028898 90.920756-60.523445 146.116869-60.523445 55.19509 0 107.086947 21.494547 146.115845 60.523445s60.523445 90.920756 60.523445 146.115845S854.433046 777.951141 815.403125 816.98004C776.374226 856.008938 724.482369 877.503485 669.287279 877.503485z" fill="#ffffff" p-id="11290"></path></svg>