<?xml version="1.0" standalone="no"?><!DOCTYPE svg PUBLIC "-//W3C//DTD SVG 1.1//EN" "http://www.w3.org/Graphics/SVG/1.1/DTD/svg11.dtd"><svg t="1721115028630" class="icon" viewBox="0 0 1448 1024" version="1.1" xmlns="http://www.w3.org/2000/svg" p-id="11020" xmlns:xlink="http://www.w3.org/1999/xlink" width="353.515625" height="250"><path d="M1110.179069 878.132034l-67.257517-67.429531c-8.256677-8.256677-20.985721-10.148833-31.306568-4.644381l-12.729044-12.729044c19.437594-24.25399 30.96254-55.216529 30.96254-88.759281 0-79.470519-63.989249-143.631782-142.771712-143.631783-78.954477 0-143.11574 64.333277-143.11574 143.631783 0 79.126491 63.989249 143.459768 143.11574 143.459768 33.370737 0 64.161263-11.69696 88.415253-31.134554l12.729044 12.729044c-5.504452 10.320847-3.612296 23.049891 4.644381 31.478582l67.257517 67.429532c4.988409 4.988409 11.69696 7.740635 18.921552 7.740635 7.052579 0 13.933143-2.752226 18.921553-7.740635l12.55703-12.55703c9.976818-10.320847 9.976818-27.178229-0.344029-37.843105z m-339.727868-173.734251c0-64.677306 52.120275-116.969595 116.453553-116.969596 64.161263 0 116.453553 52.29229 116.453553 116.969596s-52.29229 116.797581-116.453553 116.797581c-64.333277 0-116.453553-52.29229-116.453553-116.797581z m145.695952 71.213841c-57.108685 0-103.38048-46.44381-103.380481-103.724508 0-1.548127 0.172014-3.096254 0.344028-4.472367-7.740635 12.729044-11.868974 27.178229-11.868973 41.971443 0 44.207626 35.778935 80.158576 79.814547 80.158575 17.029397 0 32.682681-5.332437 45.755754-14.449185-3.612296 0.172014-7.052579 0.516042-10.664875 0.516042z m0 0" p-id="11021" fill="#ffffff"></path><path d="M646.084999 49.884092c0-16.685369-14.449185-30.102469-32.338653-30.102469S581.407694 33.198723 581.407694 49.884092v107.508819h64.505291V49.884092zM1044.469679 318.05409c14.277171-8.256677 19.093566-26.490173 10.836889-40.767344-3.956325-6.880564-10.492861-11.868974-18.061481-13.933143-7.568621-2.064169-15.825298-1.032085-22.533849 2.92424L920.275491 321.150344l29.758441 51.776248 94.435747-54.872502zM879.680161 130.730724c8.256677-14.277171 3.268268-32.510667-10.836889-40.767344-6.880564-3.956325-14.965228-4.988409-22.533848-2.92424s-14.105157 7.052579-18.061482 13.933143l-54.528473 94.779775 51.432219 29.930455L879.680161 130.730724zM183.367042 318.05409l94.435747 54.700488 29.758441-51.776248-94.435747-54.700487c-6.880564-3.956325-14.965228-4.988409-22.533849-2.92424s-14.105157 7.052579-18.061481 13.933143c-8.256677 14.277171-3.440282 32.510667 10.836889 40.767344zM402.685033 225.682513l51.604233-29.930455-54.528473-94.779775c-3.956325-6.880564-10.492861-11.868974-18.061482-13.933143-7.568621-2.064169-15.825298-1.032085-22.533848 2.92424-14.277171 8.256677-19.093566 26.490173-10.836889 40.767344l54.356459 94.951789zM712.998488 732.092054c0-116.969595 91.167479-212.609441 206.416933-219.662019-17.545439-153.092558-147.588107-271.954309-305.325046-271.954308-169.777927 0-307.389216 137.611288-307.389216 307.389215v299.304552H201.256509c-17.889467 0.172014-32.166639 14.621199-32.166638 32.338653 0 17.889467 14.449185 32.338653 32.166638 32.338653h605.145641c-56.592642-39.73526-93.403662-105.44465-93.403662-179.754746z m-228.434739-117.829665l151.716446-249.764489-30.274484 187.323367h121.269948L575.559214 801.585755l30.274483-187.323366h-121.269948z" p-id="11022" fill="#ffffff"></path></svg>