<?xml version="1.0" standalone="no"?><!DOCTYPE svg PUBLIC "-//W3C//DTD SVG 1.1//EN" "http://www.w3.org/Graphics/SVG/1.1/DTD/svg11.dtd"><svg t="1721115417413" class="icon" viewBox="0 0 1024 1024" version="1.1" xmlns="http://www.w3.org/2000/svg" p-id="12988" xmlns:xlink="http://www.w3.org/1999/xlink" width="250" height="250"><path d="M410.4192 165.0688H216.2688a46.2848 46.2848 0 0 0-46.2848 46.2848v276.0704c0 25.55904 20.72576 46.2848 46.2848 46.2848h194.1504a46.2848 46.2848 0 0 0 46.2848-46.2848V211.3536a46.2848 46.2848 0 0 0-46.2848-46.2848z m260.21888 467.3536a132.3008 132.3008 0 1 1 146.39104 220.3648 132.3008 132.3008 0 0 1-146.39104-220.3648z m145.28512 129.8432l21.7088-4.5056a6.9632 6.9632 0 0 0 7.3728-4.5056v-16.7936a6.5536 6.5536 0 0 0-5.7344-6.5536l-21.7088-4.5056a6.5536 6.5536 0 0 1-5.3248-4.5056l-2.4576-5.7344a6.9632 6.9632 0 0 1 0-6.9632l11.8784-18.432a6.9632 6.9632 0 0 0 0-9.0112l-11.8784-11.8784a6.9632 6.9632 0 0 0-8.6016 0l-18.432 12.288a6.9632 6.9632 0 0 1-6.9632 0l-5.7344-2.4576a6.59456 6.59456 0 0 1-4.5056-5.3248l-4.5056-21.2992a7.3728 7.3728 0 0 0-6.9632-5.7344H737.28a7.3728 7.3728 0 0 0-6.9632 5.7344l-4.096 21.2992a7.3728 7.3728 0 0 1-4.5056 5.3248l-5.7344 2.4576a6.9632 6.9632 0 0 1-6.9632 0l-18.432-12.288a8.192 8.192 0 0 0-9.0112 0l-11.8784 11.8784a6.9632 6.9632 0 0 0 0 9.0112l12.288 18.432a6.9632 6.9632 0 0 1 0 6.9632l-2.4576 5.7344a6.5536 6.5536 0 0 1-5.3248 4.5056l-21.2992 4.5056a6.5536 6.5536 0 0 0-5.7344 6.5536v16.7936a6.9632 6.9632 0 0 0 5.7344 6.9632l21.2992 4.5056a6.5536 6.5536 0 0 1 5.3248 4.5056l2.4576 5.7344a6.9632 6.9632 0 0 1 0 6.9632l-12.288 18.432a7.3728 7.3728 0 0 0 0 9.0112l11.8784 11.4688a7.3728 7.3728 0 0 0 9.0112 0l18.432-12.288a6.144 6.144 0 0 1 6.9632 0h5.7344a7.3728 7.3728 0 0 1 4.5056 5.3248l4.096 21.7088a7.3728 7.3728 0 0 0 6.9632 5.7344h15.1552a7.3728 7.3728 0 0 0 6.9632-5.7344l4.5056-21.7088a6.5536 6.5536 0 0 1 4.5056-5.3248 17.24416 17.24416 0 0 0 5.7344-2.4576 6.92224 6.92224 0 0 1 6.9632 0l18.432 12.288a6.9632 6.9632 0 0 0 8.6016 0l11.8784-11.4688a6.9632 6.9632 0 0 0 0-9.0112l-11.8784-18.432a6.9632 6.9632 0 0 1 0-6.9632 34.52928 34.52928 0 0 0 2.4576-5.7344 6.5536 6.5536 0 0 1 5.3248-4.5056z m-103.05536-56.03328c9.216-6.144 20.48-8.3968 31.37536-6.22592a40.91904 40.91904 0 0 1 29.9008 12.6976 41.65632 41.65632 0 0 1-46.2848 69.2224 41.7792 41.7792 0 0 1-14.99136-75.69408zM573.44 165.0688h217.088c19.2512 0 34.816 15.5648 34.816 34.816v135.168c0 19.2512-15.5648 34.816-34.816 34.816H573.44a34.816 34.816 0 0 1-34.816-34.816v-135.168c0-19.2512 15.5648-34.816 34.816-34.816z m-151.552 450.56H204.8a34.816 34.816 0 0 0-34.816 34.816v135.168c0 19.2512 15.5648 34.816 34.816 34.816h217.088c19.2512 0 34.816-15.5648 34.816-34.816v-135.168a34.816 34.816 0 0 0-34.816-34.816z m197.2224 8.27392c-17.57184 18.14528-30.67904 40.1408-38.2976 64.22528a160.93184 160.93184 0 0 0 15.9744 132.3008h-11.8784a46.6944 46.6944 0 0 1-46.2848-46.6944v-275.6608a46.2848 46.2848 0 0 1 46.2848-46.2848H778.24a46.20288 46.20288 0 0 1 48.3328 46.2848v102.4a163.75808 163.75808 0 0 0-207.4624 23.42912z" fill="#ffffff" p-id="12989"></path></svg>