<?xml version="1.0" standalone="no"?><!DOCTYPE svg PUBLIC "-//W3C//DTD SVG 1.1//EN" "http://www.w3.org/Graphics/SVG/1.1/DTD/svg11.dtd"><svg t="1721183703431" class="icon" viewBox="0 0 1031 1024" version="1.1" xmlns="http://www.w3.org/2000/svg" p-id="9271" width="402.734375" height="400" xmlns:xlink="http://www.w3.org/1999/xlink"><path d="M966.822335 133.19797h-129.949239V38.984772a32.48731 32.48731 0 0 0-32.487309-32.48731 32.48731 32.48731 0 0 0-32.48731 32.48731v94.213198H259.898477V32.48731a32.48731 32.48731 0 0 0-32.487309-32.48731 32.48731 32.48731 0 0 0-32.48731 32.48731v100.71066H64.974619a64.974619 64.974619 0 0 0-64.974619 64.974619v760.852792a64.974619 64.974619 0 0 0 64.974619 64.974619h901.847716a64.974619 64.974619 0 0 0 64.974619-64.974619V198.172589a64.974619 64.974619 0 0 0-64.974619-64.974619z m0 858.31472v-32.487309H64.974619V198.172589h129.949239v25.989848a33.137056 33.137056 0 0 0 32.48731 32.487309 32.48731 32.48731 0 0 0 32.487309-32.487309v-25.989848h506.802031v32.487309a32.48731 32.48731 0 0 0 32.487309 32.48731 33.137056 33.137056 0 0 0 32.48731-32.48731v-32.487309h129.949238v760.852792z" fill="#ffffff" p-id="9272"></path><path d="M194.923858 372.954315h506.152284a24.690355 24.690355 0 0 0 24.040609-24.690356 18.84264 18.84264 0 0 0 0-5.847715 18.84264 18.84264 0 0 0 0-5.847716 32.48731 32.48731 0 0 0-32.487309-32.48731h-487.309645a32.48731 32.48731 0 0 0-32.48731 32.48731 18.84264 18.84264 0 0 0 0 5.847716 18.84264 18.84264 0 0 0 0 5.847715 24.040609 24.040609 0 0 0 22.091371 24.690356zM194.923858 550.335025h265.096447a24.690355 24.690355 0 0 0 24.040609-24.690355 18.84264 18.84264 0 0 0 0-5.847716 18.84264 18.84264 0 0 0 0-5.847715 32.48731 32.48731 0 0 0-32.48731-32.48731H205.319797a32.48731 32.48731 0 0 0-32.48731 32.48731 18.84264 18.84264 0 0 0 0 5.847715 18.84264 18.84264 0 0 0 0 5.847716 24.040609 24.040609 0 0 0 22.091371 24.690355zM194.923858 727.715736h436.629441a24.690355 24.690355 0 0 0 24.690356-24.690355 17.543147 17.543147 0 0 0 0-7.796955v-3.898477a32.48731 32.48731 0 0 0-32.48731-32.487309H205.319797a32.48731 32.48731 0 0 0-32.48731 32.487309 18.84264 18.84264 0 0 0 0 5.847716 18.84264 18.84264 0 0 0 0 5.847716 24.040609 24.040609 0 0 0 22.091371 24.690355zM818.030457 835.573604H205.319797a32.48731 32.48731 0 0 0-32.48731 32.48731 19.492386 19.492386 0 0 0 0 6.497462 18.84264 18.84264 0 0 0 0 5.847715 24.040609 24.040609 0 0 0 24.040609 24.690356h628.954315a24.690355 24.690355 0 0 0 24.690355-24.690356 18.84264 18.84264 0 0 0 0-5.847715 19.492386 19.492386 0 0 0 0-6.497462 33.137056 33.137056 0 0 0-32.487309-32.48731z" fill="#ffffff" p-id="9273"></path></svg>