<?xml version="1.0" standalone="no"?><!DOCTYPE svg PUBLIC "-//W3C//DTD SVG 1.1//EN" "http://www.w3.org/Graphics/SVG/1.1/DTD/svg11.dtd"><svg t="1721182910753" class="icon" viewBox="0 0 1024 1024" version="1.1" xmlns="http://www.w3.org/2000/svg" p-id="5620" width="400" height="400" xmlns:xlink="http://www.w3.org/1999/xlink"><path d="M512 986.6C260.5 986.6 55.8 782 55.8 530.4S260.5 74.2 512 74.2s456.2 204.6 456.2 456.2S763.5 986.6 512 986.6z m0-888.9c-238.6 0-432.7 194.1-432.7 432.7S273.4 963.1 512 963.1 944.7 769 944.7 530.4 750.6 97.7 512 97.7z" fill="#ffffff" p-id="5621"></path><path d="M512 200.7c-182.1 0-329.7 147.6-329.7 329.7S329.9 860.1 512 860.1s329.7-147.6 329.7-329.7S694.1 200.7 512 200.7z m-96.7 464.9h-38.7V511.1h38.7v154.5z m76.6 0h-38.7V395.2h38.7v270.4z m78.2 0h-38.7V549.7h38.7v115.9z m77.2 0h-38.7V433.8h38.7v231.8z" fill="#ffffff" p-id="5622"></path></svg>