<?xml version="1.0" standalone="no"?><!DOCTYPE svg PUBLIC "-//W3C//DTD SVG 1.1//EN" "http://www.w3.org/Graphics/SVG/1.1/DTD/svg11.dtd"><svg t="1721119199965" class="icon" viewBox="0 0 1024 1024" version="1.1" xmlns="http://www.w3.org/2000/svg" p-id="16438" xmlns:xlink="http://www.w3.org/1999/xlink" width="350" height="350"><path d="M959.72 949.57H63.95c-16.57 0-30-13.43-30-30s13.43-30 30-30h895.78c16.57 0 30 13.43 30 30-0.01 16.57-13.44 30-30.01 30zM852.21 163H686.72c-16.57 0-30 13.43-30 30v165.49c0 16.57 13.43 30 30 30h52.75V493h60V388.49h52.75c16.57 0 30-13.43 30-30V193c-0.01-16.57-13.44-30-30.01-30z m-30 165.49H716.72V223h105.49v105.49z" p-id="16439" fill="#ffffff"></path><path d="M959.56 33.95H63.95c-16.57 0-30 13.43-30 30v737.73c0 16.57 13.43 30 30 30h895.61c16.57 0 30-13.43 30-30V63.95c0-16.57-13.43-30-30-30z m-30 737.73H93.95V93.95h835.61v677.73z" p-id="16440" fill="#ffffff"></path><path d="M169.66 388.49h52.75V523c0 16.57 13.43 30 30 30H479v88.47H252.4c-16.57 0-30 13.43-30 30s13.43 30 30 30h517.24c16.57 0 30-13.43 30-30s-13.43-30-30-30H539V553h230.47c16.57 0 30-13.43 30-30v-30H539V388.49h52.79c16.57 0 30-13.43 30-30V193c0-16.57-13.43-30-30-30h-165.5c-16.57 0-30 13.43-30 30v165.49c0 16.57 13.43 30 30 30H479V493H282.4V388.49h52.75c16.57 0 30-13.43 30-30V193c0-16.57-13.43-30-30-30H169.66c-16.57 0-30 13.43-30 30v165.49c0 16.57 13.43 30 30 30z m286.63-60V223h105.49v105.49H456.29zM199.66 223h105.49v105.49H199.66V223z" p-id="16441" fill="#ffffff"></path></svg>