<?xml version="1.0" standalone="no"?><!DOCTYPE svg PUBLIC "-//W3C//DTD SVG 1.1//EN" "http://www.w3.org/Graphics/SVG/1.1/DTD/svg11.dtd"><svg t="1721184126774" class="icon" viewBox="0 0 1073 1024" version="1.1" xmlns="http://www.w3.org/2000/svg" p-id="12585" width="419.140625" height="400" xmlns:xlink="http://www.w3.org/1999/xlink"><path d="M74.879883 823.696312V100.35664A25.83356 25.83356 0 0 1 100.339044 74.89748h599.039065a25.83356 25.83356 0 0 1 25.459161 25.45916v314.49551h74.879883v-314.49551A100.339044 100.339044 0 0 0 697.506112 0.017597H100.339044A100.339044 100.339044 0 0 0 0 100.35664V823.696312a100.339044 100.339044 0 0 0 100.339044 100.339044h299.519532v-74.879883h-299.519532A25.83356 25.83356 0 0 1 74.879883 823.696312z" fill="#ffffff" p-id="12586"></path><path d="M187.199708 187.217305a37.439942 37.439942 0 0 0-37.439942 37.439941 37.439942 37.439942 0 0 0 37.439942 37.439942h370.281023a37.439942 37.439942 0 0 0 34.819145-37.439942 37.439942 37.439942 0 0 0-34.819145-37.439941zM398.735378 377.412208H187.199708a37.439942 37.439942 0 0 0 0 74.879884h213.033268a37.439942 37.439942 0 0 0 0-74.879884zM336.959475 640.989397a37.439942 37.439942 0 0 0 0-74.879883H187.199708a37.439942 37.439942 0 0 0 0 74.879883zM1036.337584 949.120117h-46.425528v-266.197985a222.393253 222.393253 0 0 0-444.786506 0v266.197985h-46.051128a37.439942 37.439942 0 0 0 0 74.879883h537.263162a37.439942 37.439942 0 0 0 0-74.879883z m-416.332151-266.197985a147.51337 147.51337 0 0 1 295.02674 0v266.197985h-295.02674z" fill="#ffffff" p-id="12587"></path><path d="M826.673911 610.663045l-22.089566-16.473575a23.961563 23.961563 0 0 0-33.321548 4.867193l-92.476655 123.177408a24.335962 24.335962 0 0 0 11.231982 37.439941l59.155108 20.966367-50.918321 68.140694a24.710361 24.710361 0 0 0 4.867193 34.070347l21.340766 15.724776a23.961563 23.961563 0 0 0 33.695948-4.867193l93.225454-124.300606a22.838364 22.838364 0 0 0-10.857583-35.567945l-60.278306-22.463965 50.918321-67.391894a23.587163 23.587163 0 0 0-4.492793-33.321548z" fill="#ffffff" p-id="12588"></path></svg>