<?xml version="1.0" standalone="no"?><!DOCTYPE svg PUBLIC "-//W3C//DTD SVG 1.1//EN" "http://www.w3.org/Graphics/SVG/1.1/DTD/svg11.dtd"><svg t="1721119399595" class="icon" viewBox="0 0 1024 1024" version="1.1" xmlns="http://www.w3.org/2000/svg" p-id="17525" xmlns:xlink="http://www.w3.org/1999/xlink" width="350" height="350"><path d="M277.333333 277.333333c0-12.8 8.533333-21.333333 21.333334-21.333333h426.666666c12.8 0 21.333333 8.533333 21.333334 21.333333s-8.533333 21.333333-21.333334 21.333334H298.666667c-12.8 0-21.333333-8.533333-21.333334-21.333334zM298.666667 469.333333h426.666666c12.8 0 21.333333-8.533333 21.333334-21.333333S738.133333 426.666667 725.333333 426.666667H298.666667c-12.8 0-21.333333 8.533333-21.333334 21.333333s8.533333 21.333333 21.333334 21.333333z m0 170.666667h128c12.8 0 21.333333-8.533333 21.333333-21.333333s-8.533333-21.333333-21.333333-21.333334h-128c-12.8 0-21.333333 8.533333-21.333334 21.333334s8.533333 21.333333 21.333334 21.333333zM750.933333 85.333333H273.066667C217.6 85.333333 170.666667 132.266667 170.666667 187.733333v648.533334c0 55.466667 46.933333 102.4 102.4 102.4h46.933333c12.8 0 21.333333-8.533333 21.333333-21.333334s-8.533333-21.333333-21.333333-21.333333h-46.933333c-34.133333 0-59.733333-25.6-59.733334-59.733333V187.733333C213.333333 153.6 238.933333 128 273.066667 128h477.866666c34.133333 0 59.733333 25.6 59.733334 59.733333v217.6c0 12.8 8.533333 21.333333 21.333333 21.333334s21.333333-8.533333 21.333333-21.333334V187.733333C853.333333 132.266667 806.4 85.333333 750.933333 85.333333zM853.333333 512v341.333333c0 46.933333-38.4 85.333333-85.333333 85.333334h-341.333333c0-234.666667 192-426.666667 426.666666-426.666667z m-379.733333 384H682.666667l-85.333334-170.666667 213.333334 46.933334v-213.333334c-179.2 17.066667-320 157.866667-337.066667 337.066667z" fill="#ffffff" p-id="17526"></path></svg>