<?xml version="1.0" standalone="no"?><!DOCTYPE svg PUBLIC "-//W3C//DTD SVG 1.1//EN" "http://www.w3.org/Graphics/SVG/1.1/DTD/svg11.dtd"><svg t="1721119891834" class="icon" viewBox="0 0 1024 1024" version="1.1" xmlns="http://www.w3.org/2000/svg" p-id="24909" xmlns:xlink="http://www.w3.org/1999/xlink" width="350" height="350"><path d="M686.592 433.664v66.048c0 19.968-15.872 35.84-35.84 35.84s-35.84-15.872-35.84-35.84V433.664c0-11.776-9.728-22.016-22.016-22.016H211.968c-11.776 0-22.016 9.728-22.016 22.016v360.96c0 11.776 9.728 22.016 22.016 22.016h380.928c11.776 0 22.016-9.728 22.016-22.016v-28.16c0-19.968 15.872-35.84 35.84-35.84s35.84 15.872 35.84 35.84v28.16c0 51.712-41.984 93.696-93.696 93.696H211.968c-51.712 0-93.696-41.984-93.696-93.696V433.664c0-51.712 41.984-93.696 93.696-93.696h380.928c51.712 0 93.696 41.984 93.696 93.696zM421.376 110.592h380.928c51.712 0 93.696 41.984 93.696 93.696v360.96c0 51.712-41.984 93.696-93.696 93.696H421.376c-51.712 0-93.696-41.984-93.696-93.696V499.712c0-19.968 15.872-35.84 35.84-35.84s35.84 15.872 35.84 35.84v66.048c0 11.776 9.728 22.016 22.016 22.016h380.928c11.776 0 22.016-9.728 22.016-22.016V204.288c0-11.776-9.728-22.016-22.016-22.016H421.376c-11.776 0-22.016 9.728-22.016 22.016V230.4c0 19.968-15.872 35.84-35.84 35.84s-35.84-15.872-35.84-35.84v-26.112c0-51.712 41.472-93.696 93.696-93.696z" fill="#ffffff" p-id="24910"></path></svg>