<?xml version="1.0" standalone="no"?><!DOCTYPE svg PUBLIC "-//W3C//DTD SVG 1.1//EN" "http://www.w3.org/Graphics/SVG/1.1/DTD/svg11.dtd"><svg t="1721185165193" class="icon" viewBox="0 0 1024 1024" version="1.1" xmlns="http://www.w3.org/2000/svg" p-id="18047" width="400" height="400" xmlns:xlink="http://www.w3.org/1999/xlink"><path d="M768 512a182.857143 182.857143 0 0 1 152.576 283.648l73.508571 73.581714-51.712 51.712-73.581714-73.508571A182.857143 182.857143 0 1 1 768 512z m0 73.142857a109.714286 109.714286 0 1 0 0 219.428572 109.714286 109.714286 0 0 0 0-219.428572z m36.571429-512a146.285714 146.285714 0 0 1 146.285714 146.285714v182.857143a36.571429 36.571429 0 1 1-73.142857 0V219.428571a72.850286 72.850286 0 0 0-7.241143-31.744L512 486.473143 153.526857 187.684571a72.630857 72.630857 0 0 0-6.729143 23.186286L146.285714 219.428571v438.857143a73.142857 73.142857 0 0 0 64.585143 72.630857L219.428571 731.428571h256a36.571429 36.571429 0 1 1 0 73.142858H219.428571a146.285714 146.285714 0 0 1-146.285714-146.285715V219.428571a146.285714 146.285714 0 0 1 146.285714-146.285714h585.142858z m1.243428 73.216H218.112L512 391.168l293.814857-244.809143z" fill="#ffffff" p-id="18048"></path></svg>