<?xml version="1.0" standalone="no"?><!DOCTYPE svg PUBLIC "-//W3C//DTD SVG 1.1//EN" "http://www.w3.org/Graphics/SVG/1.1/DTD/svg11.dtd"><svg t="1721098617811" class="icon" viewBox="0 0 1024 1024" version="1.1" xmlns="http://www.w3.org/2000/svg" p-id="7446" xmlns:xlink="http://www.w3.org/1999/xlink" width="200" height="200"><path d="M699.427 833.275H170.57c-38.599 0-70-31.401-70-70V258.217c0-38.598 31.401-70 70-70h675.046c38.598 0 70 31.402 70 70v189.529c0 16.568-13.432 30-30 30s-30-13.432-30-30V258.217c0-5.514-4.486-10-10-10H170.57c-5.514 0-10 4.486-10 10v505.058c0 5.514 4.486 10 10 10h528.857c16.568 0 30 13.432 30 30s-13.431 30-30 30z" p-id="7447" fill="#BFCBD9"></path><path d="M508.093 635.421c-20.16 0-40.318-7.418-55.979-22.258L125.344 363.56c-13.166-10.057-15.688-28.884-5.63-42.051 10.058-13.167 28.884-15.687 42.052-5.63l329.767 251.894 1.414 1.413c8.352 8.352 21.94 8.353 30.292 0.001l1.413-1.414L854.42 315.878c13.169-10.058 31.995-7.536 42.052 5.63 10.058 13.167 7.536 31.994-5.63 42.051l-326.77 249.604c-15.659 14.839-35.819 22.258-55.979 22.258z" p-id="7448" fill="#BFCBD9"></path><path d="M782.267 671.091c-8.527 0-16.837-4.365-21.512-12.227l-54.661-91.93c-7.057-11.868-3.156-27.209 8.711-34.266 11.867-7.058 27.209-3.156 34.266 8.711l54.661 91.93c7.057 11.868 3.156 27.209-8.711 34.266a24.888 24.888 0 0 1-12.754 3.516zM836.882 671.091a24.888 24.888 0 0 1-12.754-3.516c-11.867-7.057-15.768-22.397-8.711-34.266l54.661-91.93c7.056-11.868 22.396-15.768 34.266-8.711 11.867 7.057 15.768 22.397 8.711 34.266l-54.661 91.93c-4.674 7.862-12.984 12.227-21.512 12.227z" p-id="7449" fill="#BFCBD9"></path><path d="M893.43 683.51H725.719c-13.807 0-25-11.193-25-25s11.193-25 25-25H893.43c13.807 0 25 11.193 25 25s-11.193 25-25 25zM877.28 748.109H741.87c-13.808 0-25-11.192-25-25s11.192-25 25-25h135.41c13.808 0 25 11.192 25 25s-11.193 25-25 25z" p-id="7450" fill="#BFCBD9"></path><path d="M809.575 830.782c-13.808 0-25-11.192-25-25V672.176c0-13.807 11.192-25 25-25s25 11.193 25 25v133.606c0 13.808-11.193 25-25 25z" p-id="7451" fill="#BFCBD9"></path></svg>