<?xml version="1.0" standalone="no"?><!DOCTYPE svg PUBLIC "-//W3C//DTD SVG 1.1//EN" "http://www.w3.org/Graphics/SVG/1.1/DTD/svg11.dtd"><svg t="1752556341769" class="icon" viewBox="0 0 1024 1024" version="1.1" xmlns="http://www.w3.org/2000/svg" p-id="1133" xmlns:xlink="http://www.w3.org/1999/xlink" width="128" height="128"><path d="M187.093333 85.333333h649.813334C869.546667 85.333333 896 112.64 896 146.304V877.653333C896 911.36 869.504 938.666667 836.906667 938.666667H187.093333C154.453333 938.666667 128 911.36 128 877.696V146.346667C128 112.64 154.496 85.333333 187.093333 85.333333z m561.194667 60.970667H275.712v213.333333h472.576v-213.333333z m-561.194667 0V877.653333h649.898667L836.906667 146.346667h-29.525334v274.261333H216.618667V146.346667h-29.525334z m214.186667 60.928H342.229333V298.666667h59.050667V207.232z m147.712 0h-59.093333V298.666667h59.093333V207.232z m147.669333 0h-59.050666V298.666667h59.050666V207.232z m-223.36 274.304h124.757334L512 601.557333l147.712 23.04-224.213333 216.533334 76.501333-161.450667-147.669333-38.656 108.928-159.488z" fill="#111032" p-id="1134"></path></svg>