<?xml version="1.0" standalone="no"?><!DOCTYPE svg PUBLIC "-//W3C//DTD SVG 1.1//EN" "http://www.w3.org/Graphics/SVG/1.1/DTD/svg11.dtd"><svg t="1752556347781" class="icon" viewBox="0 0 1077 1024" version="1.1" xmlns="http://www.w3.org/2000/svg" p-id="1301" xmlns:xlink="http://www.w3.org/1999/xlink" width="134.625" height="128"><path d="M118.153846 64.868778h838.428959v732.553846H118.153846z" fill="" p-id="1302"></path><path d="M174.914027 120.702262h724.676923v411.916743H174.914027z" fill="#FFFFFF" p-id="1303"></path><path d="M204.104977 784.217195h687.377376v174.914027H204.104977zM267.120362 208.506787h546.751131v99.851584h-546.751131zM73.904072 397.089593h54.906788v102.168326H73.904072zM950.327602 397.089593h54.906787v102.168326h-54.906787z" fill="" p-id="1304"></path><path d="M501.574661 614.168326h72.745701l-33.824434 108.191855 89.657918-33.824434-116.763801 220.322172s-6.255204-7.1819 11.120362-143.174661l-64.40543-0.231674 41.469684-151.283258z" fill="#FFFFFF" p-id="1305"></path><path d="M269.20543 480.260633h92.669683v22.704073h-92.669683z" fill="#FF0000" p-id="1306"></path><path d="M345.657919 491.61267l81.085972-111.898643 15.522172 11.352036-81.085973 111.898643zM408.209955 480.260633h92.669683v22.704073h-92.669683z" fill="#FF0000" p-id="1307"></path></svg>