<?xml version="1.0" standalone="no"?><!DOCTYPE svg PUBLIC "-//W3C//DTD SVG 1.1//EN" "http://www.w3.org/Graphics/SVG/1.1/DTD/svg11.dtd"><svg t="1752556653706" class="icon" viewBox="0 0 1024 1024" version="1.1" xmlns="http://www.w3.org/2000/svg" p-id="1024" xmlns:xlink="http://www.w3.org/1999/xlink" width="128" height="128"><path d="M963.563093 1024H60.587093A60.928 60.928 0 0 1 0.000427 962.858667V61.141333A60.928 60.928 0 0 1 60.587093 0h902.848a60.928 60.928 0 0 1 60.586667 61.141333v901.717334A60.714667 60.714667 0 0 1 963.563093 1024zM60.587093 38.229333a22.741333 22.741333 0 0 0-22.698666 22.912v901.717334a22.741333 22.741333 0 0 0 22.698666 22.912h902.848a22.741333 22.741333 0 0 0 22.698667-22.912V61.141333a22.741333 22.741333 0 0 0-22.698667-22.912z" fill="#04324F" p-id="1025"></path><path d="M847.147093 531.114667H177.003093a53.482667 53.482667 0 0 1-54.08-52.672V150.144a53.482667 53.482667 0 0 1 54.08-52.672h670.165334a53.482667 53.482667 0 0 1 54.08 52.672v328.298667a53.482667 53.482667 0 0 1-54.101334 52.672zM176.98176 135.701333a15.488 15.488 0 0 0-16.042667 14.442667v328.298667a15.488 15.488 0 0 0 16.042667 14.442666H847.147093a15.488 15.488 0 0 0 16.042667-14.442666V150.144a15.488 15.488 0 0 0-16.042667-14.442667z" fill="#04324F" p-id="1026"></path><path d="M327.339093 316.608h-75.029333a19.2 19.2 0 0 1-18.944-19.2V202.602667a19.2 19.2 0 0 1 18.944-19.2h75.029333a19.2 19.2 0 0 1 18.944 19.2v94.997333a19.2 19.2 0 0 1-18.944 19.008z m-56.085333-38.229333h37.162667v-56.746667h-37.162667z m204.181333 38.229333h-75.029333a19.2 19.2 0 0 1-18.944-19.2V202.602667a19.2 19.2 0 0 1 18.944-19.2h75.029333a19.2 19.2 0 0 1 18.944 19.2v94.997333a19.008 19.008 0 0 1-18.965333 19.008z m-56.085333-38.229333h37.162667v-56.746667h-37.162667z" fill="#04324F" p-id="1027"></path><path d="M623.63776 316.608h-75.029333a19.2 19.2 0 0 1-18.944-19.2V202.602667a19.2 19.2 0 0 1 18.944-19.2h75.029333a19.2 19.2 0 0 1 18.944 19.2v94.997333a19.2 19.2 0 0 1-18.944 19.008z m-56.106667-38.229333h37.162667v-56.746667h-37.162667z m204.181334 38.229333h-75.029334a19.2 19.2 0 0 1-18.944-19.2V202.602667a19.2 19.2 0 0 1 18.944-19.2h75.029334a19.2 19.2 0 0 1 18.944 19.2v94.997333a19.008 19.008 0 0 1-18.944 19.008z m-56.106667-38.229333h37.162667v-56.746667h-37.162667z m56.106667 166.784H252.30976a19.2 19.2 0 0 1-18.944-19.2v-63.189334a19.2 19.2 0 0 1 18.944-19.2h519.424a19.2 19.2 0 0 1 18.944 19.2v63.189334a19.008 19.008 0 0 1-18.965333 19.2z m-500.48-38.229334h481.536v-24.96H271.25376z" fill="#04324F" p-id="1028"></path><path d="M441.216427 922.346667a18.816 18.816 0 0 1-9.109334-2.325334 19.2 19.2 0 0 1-8.96-22.613333l37.162667-118.037333h-64.192a19.008 19.008 0 0 1-16.341333-9.344 19.2 19.2 0 0 1-0.298667-18.965334l77.354667-142.933333a18.901333 18.901333 0 0 1 16.618666-9.92h77.354667a19.050667 19.050667 0 0 1 16.341333 28.608l-35.285333 62.293333h70.4a19.2 19.2 0 0 1 14.592 31.381334l-161.066667 195.072a18.858667 18.858667 0 0 1-14.570666 6.784z m-13.162667-181.226667h58.261333a19.2 19.2 0 0 1 18.069334 24.938667l-15.765334 49.898666 73.152-88.576h-62.485333a19.050667 19.050667 0 0 1-16.341333-28.608l35.285333-62.293333h-33.408z" fill="#04324F" p-id="1029"></path></svg>