<?xml version="1.0" standalone="no"?><!DOCTYPE svg PUBLIC "-//W3C//DTD SVG 1.1//EN" "http://www.w3.org/Graphics/SVG/1.1/DTD/svg11.dtd"><svg t="1752544407542" class="icon" viewBox="0 0 1024 1024" version="1.1" xmlns="http://www.w3.org/2000/svg" p-id="1426" xmlns:xlink="http://www.w3.org/1999/xlink" width="128" height="128"><path d="M846.367347 867.265306H177.632653c-45.97551 0-83.591837-37.616327-83.591837-83.591837V240.326531c0-45.97551 37.616327-83.591837 83.591837-83.591837h668.734694c45.97551 0 83.591837 37.616327 83.591837 83.591837v543.346938c0 45.97551-37.616327 83.591837-83.591837 83.591837zM177.632653 198.530612c-22.987755 0-41.795918 18.808163-41.795918 41.795919v543.346938c0 22.987755 18.808163 41.795918 41.795918 41.795919h668.734694c22.987755 0 41.795918-18.808163 41.795918-41.795919V240.326531c0-22.987755-18.808163-41.795918-41.795918-41.795919H177.632653z" fill="#333333" p-id="1427"></path><path d="M929.959184 689.632653h-323.918368c-45.97551 0-83.591837-37.616327-83.591836-83.591837V417.959184c0-45.97551 37.616327-83.591837 83.591836-83.591837h323.918368v355.265306z m-323.918368-313.469388c-22.987755 0-41.795918 18.808163-41.795918 41.795919v188.081632c0 22.987755 18.808163 41.795918 41.795918 41.795919h282.122449V376.163265h-282.122449z" fill="#333333" p-id="1428"></path><path d="M700.081633 512m-52.244898 0a52.244898 52.244898 0 1 0 104.489796 0 52.244898 52.244898 0 1 0-104.489796 0Z" fill="#333333" p-id="1429"></path></svg>