<?xml version="1.0" standalone="no"?><!DOCTYPE svg PUBLIC "-//W3C//DTD SVG 1.1//EN" "http://www.w3.org/Graphics/SVG/1.1/DTD/svg11.dtd"><svg t="1752544372107" class="icon" viewBox="0 0 1024 1024" version="1.1" xmlns="http://www.w3.org/2000/svg" p-id="1258" xmlns:xlink="http://www.w3.org/1999/xlink" width="128" height="128"><path d="M830.415238 363.032381c-6.826667 0-12.190476-5.36381-12.190476-12.190476v-91.916191c0-20.967619-17.066667-38.034286-38.034286-38.034285h-127.268571c-6.826667 0-12.190476-5.36381-12.190476-12.190477s5.36381-12.190476 12.190476-12.190476H780.190476c34.377143 0 62.415238 28.038095 62.415238 62.415238v91.916191c0 6.582857-5.607619 12.190476-12.190476 12.190476zM88.990476 291.84c-6.826667 0-12.190476-5.36381-12.190476-12.190476 0-45.104762 36.08381-83.139048 78.994286-83.139048h86.79619c6.826667 0 12.190476 5.36381 12.190476 12.190476s-5.36381 12.190476-12.190476 12.190477H155.794286c-29.500952 0-54.613333 27.062857-54.613334 58.758095 0 6.826667-5.36381 12.190476-12.190476 12.190476z" p-id="1259"></path><path d="M779.946667 360.594286L522.48381 88.502857c-13.653333-14.384762-37.546667-14.384762-51.2 0l-109.714286 115.809524-17.798095-16.822857 109.714285-115.809524c22.918095-24.380952 63.634286-24.380952 86.552381 0L797.744762 343.771429l-17.798095 16.822857z" p-id="1260"></path><path d="M721.432381 363.52L303.299048 188.464762c-9.264762-3.900952-19.260952-3.900952-28.281905 0a36.571429 36.571429 0 0 0-19.504762 20.48l-55.344762 147.504762-22.918095-8.533334 55.344762-147.504761c5.851429-15.60381 17.310476-27.794286 32.670476-34.377143s31.939048-6.582857 47.299048-0.24381l418.133333 175.055238-9.264762 22.674286z" p-id="1261"></path><path d="M858.209524 898.681905H139.215238c-34.377143 0-62.415238-28.038095-62.415238-62.415238V279.649524c0-6.826667 5.36381-12.190476 12.190476-12.190476s12.190476 5.36381 12.190476 12.190476c0 6.095238 2.438095 59.001905 70.217143 59.001905H858.209524c34.377143 0 62.415238 28.038095 62.415238 62.415238v130.681904c0 6.826667-5.36381 12.190476-12.190476 12.190477s-12.190476-5.36381-12.190476-12.190477v-130.681904c0-20.967619-17.066667-38.034286-38.034286-38.034286H171.398095c-34.377143 0-56.32-11.215238-70.217143-25.356191v498.834286c0 20.967619 17.066667 38.034286 38.034286 38.034286H858.209524c20.967619 0 38.034286-17.066667 38.034286-38.034286v-130.681905c0-6.826667 5.36381-12.190476 12.190476-12.190476s12.190476 5.36381 12.190476 12.190476v130.681905c0 34.377143-28.038095 62.171429-62.415238 62.171429z" p-id="1262"></path><path d="M908.434286 717.775238H599.04c-34.377143 0-62.415238-28.038095-62.415238-62.415238v-73.874286c0-34.377143 28.038095-62.415238 62.415238-62.415238h309.394286c34.377143 0 62.415238 28.038095 62.415238 62.415238v73.874286a62.537143 62.537143 0 0 1-62.415238 62.415238zM599.04 543.695238c-20.967619 0-38.034286 17.066667-38.034286 38.034286v73.874286c0 20.967619 17.066667 38.034286 38.034286 38.034285h309.394286c20.967619 0 38.034286-17.066667 38.034285-38.034285v-73.874286c0-20.967619-17.066667-38.034286-38.034285-38.034286H599.04z" p-id="1263"></path><path d="M662.186667 664.624762c-25.35619 0-46.08-20.72381-46.08-46.08s20.72381-46.08 46.08-46.08 46.08 20.72381 46.08 46.08-20.72381 46.08-46.08 46.08z m0-67.535238c-11.946667 0-21.699048 9.752381-21.699048 21.699047s9.752381 21.699048 21.699048 21.699048 21.699048-9.752381 21.699047-21.699048-9.752381-21.699048-21.699047-21.699047z" p-id="1264"></path><path d="M282.331429 784.822857c-6.826667 0-12.190476-5.36381-12.190477-12.190476v-24.380952c0-6.826667 5.36381-12.190476 12.190477-12.190477s12.190476 5.36381 12.190476 12.190477v24.380952c0 6.826667-5.36381 12.190476-12.190476 12.190476z m0-97.523809c-6.826667 0-12.190476-5.36381-12.190477-12.190477v-24.380952c0-6.826667 5.36381-12.190476 12.190477-12.190476s12.190476 5.36381 12.190476 12.190476v24.380952c0 6.826667-5.36381 12.190476-12.190476 12.190477z m0-97.52381c-6.826667 0-12.190476-5.36381-12.190477-12.190476v-24.380952c0-6.826667 5.36381-12.190476 12.190477-12.190477s12.190476 5.36381 12.190476 12.190477v24.380952c0 6.826667-5.36381 12.190476-12.190476 12.190476z m0-97.523809c-6.826667 0-12.190476-5.36381-12.190477-12.190477v-24.380952c0-6.826667 5.36381-12.190476 12.190477-12.190476s12.190476 5.36381 12.190476 12.190476v24.380952c0 6.826667-5.36381 12.190476-12.190476 12.190477z" p-id="1265"></path></svg>