<?xml version="1.0" standalone="no"?><!DOCTYPE svg PUBLIC "-//W3C//DTD SVG 1.1//EN" "http://www.w3.org/Graphics/SVG/1.1/DTD/svg11.dtd"><svg t="1721100115135" class="icon" viewBox="0 0 1024 1024" version="1.1" xmlns="http://www.w3.org/2000/svg" p-id="5844" xmlns:xlink="http://www.w3.org/1999/xlink" width="250" height="250"><path d="M119.28 282.912H752a87.28 87.28 0 0 1 87.28 87.264v458.192A87.28 87.28 0 0 1 752 915.632H119.28A87.28 87.28 0 0 1 32 828.368V370.176a87.28 87.28 0 0 1 87.28-87.264z m87.264 174.544a43.632 43.632 0 0 0 0 87.264H512a43.632 43.632 0 0 0 0-87.264H206.56z m0 196.368a43.632 43.632 0 0 0 0 87.264H512a43.632 43.632 0 0 0 0-87.264H206.56z m480-109.104a43.632 43.632 0 1 0 0-87.264 43.632 43.632 0 0 0 0 87.264z m0 196.368a43.632 43.632 0 1 0 0-87.264 43.632 43.632 0 0 0 0 87.264z m196.368-87.264V326.544a87.28 87.28 0 0 0-87.28-87.264H184.72v-43.648A87.28 87.28 0 0 1 272 108.368h632.72A87.28 87.28 0 0 1 992 195.632V566.56a87.28 87.28 0 0 1-87.28 87.28h-21.808z" fill="#ffffff" p-id="5845"></path></svg>