<?xml version="1.0" standalone="no"?><!DOCTYPE svg PUBLIC "-//W3C//DTD SVG 1.1//EN" "http://www.w3.org/Graphics/SVG/1.1/DTD/svg11.dtd"><svg t="1715736409026" class="icon" viewBox="0 0 1024 1024" version="1.1" xmlns="http://www.w3.org/2000/svg" p-id="3800" xmlns:xlink="http://www.w3.org/1999/xlink" width="200" height="200"><path d="M388.876952 787.987508l-40.934416-103.615241 143.270456-56.284822-140.712055-46.690818-2.558401-104.894441 287.820112-111.930044 40.934416 104.254841-143.270456 55.645222 140.712055 46.690818 2.558401 104.894441-287.820112 111.930044z" fill="#2B84EC" p-id="3801"></path><path d="M511.6802 992.019988a575.640225 575.640225 0 0 1-348.582136-131.757652 325.556527 325.556527 0 0 1-76.75203-354.978139c49.888819-141.351655 348.582136-423.415365 383.76015-455.395378L511.6802 8.954403l44.772017 40.934416c33.259213 31.980012 331.95253 314.043723 383.76015 455.395378a325.556527 325.556527 0 0 1-77.39163 354.978139A575.640225 575.640225 0 0 1 511.6802 992.019988zM511.6802 184.844472C393.354154 301.251718 233.454091 473.304185 207.230481 548.137414A200.834478 200.834478 0 0 0 251.362898 767.5203 452.197377 452.197377 0 0 0 511.6802 864.099938 452.197377 452.197377 0 0 0 773.276702 767.5203a200.834478 200.834478 0 0 0 44.132417-218.743286C791.185509 473.304185 631.285447 301.251718 511.6802 184.844472z" fill="#2B84EC" p-id="3802"></path></svg>