<?xml version="1.0" standalone="no"?><!DOCTYPE svg PUBLIC "-//W3C//DTD SVG 1.1//EN" "http://www.w3.org/Graphics/SVG/1.1/DTD/svg11.dtd"><svg t="1721116096751" class="icon" viewBox="0 0 1024 1024" version="1.1" xmlns="http://www.w3.org/2000/svg" p-id="7591" xmlns:xlink="http://www.w3.org/1999/xlink" width="350" height="350"><path d="M924.983 593.618c-4.865 0-9.479 1.06-13.625 2.95l-184.23-131.585c0.1-1.04 0.15-2.096 0.15-3.16 0-18.21-14.735-32.947-32.95-32.947-18.21 0-32.95 14.735-32.95 32.947 0 1.064 0.06 2.12 0.155 3.16L477.309 596.568a32.79 32.79 0 0 0-13.63-2.95 32.772 32.772 0 0 0-10.377 1.68L199.407 369.624c0.44-2.147 0.67-4.37 0.67-6.645 0-18.212-14.752-32.95-32.95-32.95s-32.95 14.735-32.95 32.95c0 18.212 14.752 32.947 32.95 32.947 3.627 0 7.115-0.592 10.377-1.675L431.4 619.928a33.16 33.16 0 0 0-0.667 6.644c0 18.21 14.752 32.946 32.946 32.946 18.212 0 32.95-14.736 32.95-32.946 0-1.065-0.055-2.12-0.155-3.16L680.703 491.83c4.155 1.888 8.765 2.948 13.63 2.948s9.475-1.063 13.625-2.948l184.23 131.581a32.359 32.359 0 0 0-0.154 3.16c0 18.21 14.731 32.946 32.95 32.946 18.215 0 32.954-14.736 32.954-32.946s-14.74-32.953-32.955-32.953z" p-id="7592" fill="#ffffff"></path><path d="M899.758 823.198H193.177c-55.072 0-99.865-34.17-99.865-76.19V216.252c0-8.43-6.822-15.25-15.237-15.25-8.43 0-15.252 6.82-15.252 15.25v530.756c0 58.82 58.485 106.665 130.355 106.665h706.581c8.434 0 15.25-6.825 15.25-15.255s-6.821-15.22-15.251-15.22zM688.139 273.573h39.307v-69.824h86.426v-43.457h-71.777c-10.986 19.775-23.275 38.006-36.865 54.688-4.232-4.557-9.277-9.113-15.137-13.672 23.111-26.041 40.445-55.256 52.002-87.646l20.02 5.615c-3.418 8.057-7 15.869-10.742 23.438H919.34v17.578h-85.693v43.457h81.543v17.09h-81.543v52.734h96.68v17.578h-96.68v65.918h-19.775v-65.918H688.139v-17.579z m58.593 0h67.139v-52.734h-67.139v52.734z" p-id="7593" fill="#ffffff"></path></svg>