<?xml version="1.0" standalone="no"?><!DOCTYPE svg PUBLIC "-//W3C//DTD SVG 1.1//EN" "http://www.w3.org/Graphics/SVG/1.1/DTD/svg11.dtd"><svg t="1721099025795" class="icon" viewBox="0 0 1024 1024" version="1.1" xmlns="http://www.w3.org/2000/svg" p-id="3266" width="250" height="250" xmlns:xlink="http://www.w3.org/1999/xlink"><path d="M657.6 544.3c-15.9 15.9-25.7 37.8-25.7 62.1 0 48.5 39.3 87.7 87.7 87.7h240.7v161c0 44.3-36 80.3-80.3 80.3H144c-44.4 0-80.3-36-80.3-80.3V357.6c0-44.3 36-80.3 80.3-80.3h736.1c44.3 0 80.3 36 80.3 80.3v161H719.7c-24.2 0-46.2 9.8-62.1 25.7z" p-id="3267" fill="#ffffff"></path><path d="M723.8 606.4m-46.6 0a46.6 46.6 0 1 0 93.2 0 46.6 46.6 0 1 0-93.2 0Z" p-id="3268" fill="#ffffff"></path><path d="M770.4 237.6H339L606.8 97.7c39.3-20.5 87.8-5.3 108.3 34l55.3 105.9z" p-id="3269" fill="#ffffff"></path></svg>