<?xml version="1.0" standalone="no"?><!DOCTYPE svg PUBLIC "-//W3C//DTD SVG 1.1//EN" "http://www.w3.org/Graphics/SVG/1.1/DTD/svg11.dtd"><svg t="1721099182950" class="icon" viewBox="0 0 1024 1024" version="1.1" xmlns="http://www.w3.org/2000/svg" p-id="4744" xmlns:xlink="http://www.w3.org/1999/xlink" width="250" height="250"><path d="M426.666667 682.666667V341.333333a85.333333 85.333333 0 0 1 85.333333-85.333333h384V213.333333c0-46.933333-38.4-85.333333-85.333333-85.333333H213.333333a85.333333 85.333333 0 0 0-85.333333 85.333333v597.333334a85.333333 85.333333 0 0 0 85.333333 85.333333h597.333334c46.933333 0 85.333333-38.4 85.333333-85.333333v-42.666667h-384a85.333333 85.333333 0 0 1-85.333333-85.333333z m128-341.333334c-23.466667 0-42.666667 19.2-42.666667 42.666667v256c0 23.466667 19.2 42.666667 42.666667 42.666667h384V341.333333h-384z m128 234.666667c-35.413333 0-64-28.586667-64-64s28.586667-64 64-64 64 28.586667 64 64-28.586667 64-64 64z" fill="#ffffff" p-id="4745"></path></svg>