<?xml version="1.0" standalone="no"?><!DOCTYPE svg PUBLIC "-//W3C//DTD SVG 1.1//EN" "http://www.w3.org/Graphics/SVG/1.1/DTD/svg11.dtd"><svg t="1721116030267" class="icon" viewBox="0 0 1024 1024" version="1.1" xmlns="http://www.w3.org/2000/svg" p-id="5406" xmlns:xlink="http://www.w3.org/1999/xlink" width="350" height="350"><path d="M981.88288 604.86314667c-5.53528889 0-10.78158222 1.20604445-15.50222222 3.35644444l-209.6128-149.71448889c0.11377778-1.18328889 0.17066667-2.38136889 0.17066667-3.59537777 0-20.71893333-16.76515555-37.48636445-37.48977778-37.48636445-20.71893333 0-37.48977778 16.76515555-37.48977778 37.48636445 0 1.21400889 0.06826667 2.41208889 0.17635556 3.59537777L472.52935111 608.21959111a37.31911111 37.31911111 0 0 0-15.50791111-3.35644444 37.35324445 37.35324445 0 0 0-11.80672 1.91146666L156.33863111 350.00775111c0.50062222-2.44280889 0.76231111-4.97208889 0.76231111-7.56053333 0-20.72120889-16.78449778-37.48977778-37.48977777-37.48977778s-37.48977778 16.76515555-37.48977778 37.48977778c0 20.72120889 16.78449778 37.48636445 37.48977778 37.48636444 4.12672 0 8.09528889-0.67356445 11.80672-1.90577777l288.87608888 256.77027555a37.70254222 37.70254222 0 0 0-0.75889778 7.55598222c0 20.71893333 16.78449778 37.48864 37.48864 37.48864 20.72120889 0 37.48977778-16.76970667 37.48977778-37.48864 0-1.21173333-0.06257778-2.41208889-0.17635555-3.59537777l209.61052444-149.71107556c4.72746667 2.14812445 9.97262222 3.35416889 15.50791111 3.35416889s10.78044445-1.20718222 15.50222222-3.35416889l209.61166223 149.71107556a37.17688889 37.17688889 0 0 0-0.17635556 3.59537777c0 20.71893333 16.76401778 37.48864 37.48977778 37.48864 20.72462222 0 37.49546667-16.76970667 37.49546667-37.48864s-16.77084445-37.49091555-37.49546667-37.49091555z" fill="#ffffff" p-id="5407"></path><path d="M953.18243555 866.07416889H149.25027555c-62.65969778 0-113.62417778-38.87786667-113.62417777-86.68728889V175.50449778c0-9.59146667-7.76192-17.35111111-17.33632-17.35111111-9.59146667 0-17.35338667 7.75964445-17.35338667 17.35111111v603.88238222c0 66.92408889 66.54293333 121.36106667 148.31502222 121.36106667h803.93216c9.59260445 0 17.35111111-7.76533333 17.35111112-17.3568s-7.76078222-17.31697778-17.3522489-17.31697778zM686.17784889 64.26055111h198.05525333v252.22257778h-23.61116444v-19.72224H709.78901333v19.72224h-23.61116444v-252.22257778z m23.61116444 20.83271111v83.05550223h150.83292445v-83.05550223H709.78901333z m0 103.88935111v87.49966222h150.83292445v-87.49966222H709.78901333z" fill="#ffffff" p-id="5408"></path></svg>