<?xml version="1.0" standalone="no"?><!DOCTYPE svg PUBLIC "-//W3C//DTD SVG 1.1//EN" "http://www.w3.org/Graphics/SVG/1.1/DTD/svg11.dtd"><svg t="1715588751077" class="icon" viewBox="0 0 1024 1024" version="1.1" xmlns="http://www.w3.org/2000/svg" p-id="7591" xmlns:xlink="http://www.w3.org/1999/xlink" width="200" height="200"><path d="M512 16c256 253.184 384 450.496 384 591.872a384 384 0 0 1-768 0C128 466.432 256 269.184 512 16z m33.984 126.208L512 106.816l-15.168 15.616C292.672 334.72 192 499.2 192 607.872a320 320 0 1 0 640 0c0-105.28-94.528-262.976-286.016-465.664z m-61.248 193.024l54.528 33.536L441.216 528h256l-157.952 256.768-54.528-33.536 97.92-159.232H326.72l158.08-256.768z" fill="#2C374D" p-id="7592"></path></svg>