<?xml version="1.0" standalone="no"?><!DOCTYPE svg PUBLIC "-//W3C//DTD SVG 1.1//EN" "http://www.w3.org/Graphics/SVG/1.1/DTD/svg11.dtd"><svg t="1721120327388" class="icon" viewBox="0 0 1024 1024" version="1.1" xmlns="http://www.w3.org/2000/svg" p-id="27370" xmlns:xlink="http://www.w3.org/1999/xlink" width="350" height="350"><path d="M724.114286 972.8H299.885714A248.685714 248.685714 0 0 1 51.2 724.114286V299.885714A249.417143 249.417143 0 0 1 299.885714 51.2h424.228572a248.685714 248.685714 0 0 1 248.685714 248.685714v424.228572a248.685714 248.685714 0 0 1-248.685714 248.685714zM299.885714 138.971429a161.645714 161.645714 0 0 0-160.914285 160.914285v424.228572a161.645714 161.645714 0 0 0 160.914285 160.914285h424.228572a161.645714 161.645714 0 0 0 160.914285-160.914285V299.885714a161.645714 161.645714 0 0 0-160.914285-160.914285z" fill="#ffffff" p-id="27371"></path><path d="M716.8 632.685714H307.2a43.885714 43.885714 0 0 1 0-87.771428h409.6a43.885714 43.885714 0 0 1 0 87.771428z m0-153.6H307.2a43.885714 43.885714 0 0 1 0-87.771428h409.6a43.885714 43.885714 0 1 1 0 87.771428z" fill="#ffffff" p-id="27372"></path><path d="M614.4 735.085714a44.617143 44.617143 0 0 1-29.257143-12.434285A43.154286 43.154286 0 0 1 585.142857 658.285714l102.4-102.4a43.154286 43.154286 0 0 1 61.44 61.44L645.851429 721.92a44.617143 44.617143 0 0 1-31.451429 13.165714z m-307.2-256a43.885714 43.885714 0 0 1-30.72-73.142857l102.4-102.4A43.154286 43.154286 0 0 1 438.857143 365.714286L336.457143 468.114286a42.422857 42.422857 0 0 1-29.257143 10.971428z" fill="#ffffff" p-id="27373"></path></svg>