<?xml version="1.0" standalone="no"?><!DOCTYPE svg PUBLIC "-//W3C//DTD SVG 1.1//EN" "http://www.w3.org/Graphics/SVG/1.1/DTD/svg11.dtd"><svg t="1721177957322" class="icon" viewBox="0 0 1024 1024" version="1.1" xmlns="http://www.w3.org/2000/svg" p-id="4359" width="350" height="350" xmlns:xlink="http://www.w3.org/1999/xlink"><path d="M885.9 308c0-53.5-42.9-101.1-120.8-134.1C696.9 145 606.9 129 511.7 129s-185.2 16-253.5 44.9c-77.9 33-120.8 80.7-120.8 134.1 0 1.1 0 2.3 0.1 3.4 0 25.2-0.6 247-0.6 269.2v137c0 53.5 43.1 101.1 121 134.1 68.3 29 158.4 44.9 253.6 44.9s185-16 253.3-44.9c77.9-33 120.5-80.7 120.5-134.1 0.1-23.8 2.1-406.6 0.6-409.6z m-600.1-69.2c59.8-25.4 140-39.3 225.9-39.3s166.2 14 225.9 39.3c48 20.4 77.8 46.9 77.8 69.3 0 7-2.9 14.3-8.3 21.8-11.5 15.8-34.2 31.9-65.1 45.6-1.5 0.6-2.9 1.3-4.4 1.9-59.8 25.4-140 39.3-225.9 39.3s-166.2-14-225.9-39.3c-1.5-0.6-3-1.3-4.4-1.9-30.8-13.6-53.6-29.8-65.1-45.6-5.4-7.5-8.3-14.8-8.3-21.8-0.1-22.4 29.7-49 77.8-69.3z m-69.5 182.1c12.6 7.6 26.6 14.7 42 21.2 68.3 29 158.3 44.9 253.5 44.9s185.2-16 253.5-44.9c15.4-6.5 29.4-13.6 42-21.2 5.4 7.5 8.3 14.8 8.3 21.8 0 22.4-29.8 48.9-77.8 69.3-59.8 25.4-140 39.3-225.9 39.3S345.7 537.3 286 512c-48-20.4-77.8-46.9-77.8-69.3-0.3-6.9 2.6-14.3 8.1-21.8z m599.1 159.8c0 22.4-29.8 48.9-77.8 69.3-59.8 25.4-140 39.3-225.9 39.3s-166.2-14-225.9-39.3c-48-20.4-77.8-46.9-77.8-69.3 0-6.8 4.6-16.7 9.9-24.1 12.2 7.2 25.7 14 40.4 20.3 68.3 29 158.3 44.9 253.5 44.9s185.2-16 253.5-44.9c15.2-6.5 29.1-13.5 41.6-21 4.8 7.4 8.5 18.2 8.5 24.8z m-77.8 206.2c-59.8 25.4-140 39.3-225.9 39.3s-166.2-14-225.9-39.3c-48-20.4-77.8-46.9-77.8-69.3 0-6.5 4.3-16 9.3-23.3 12.3 7.3 25.9 14.2 40.8 20.5 68.3 29 158.4 44.9 253.6 44.9s185-16 253.3-44.9c15.5-6.6 29.6-13.7 42.3-21.4 4.8 7.4 8.2 17.8 8.2 24.2-0.1 22.4-29.9 48.9-77.9 69.3z" p-id="4360" fill="#ffffff"></path></svg>