<?xml version="1.0" standalone="no"?><!DOCTYPE svg PUBLIC "-//W3C//DTD SVG 1.1//EN" "http://www.w3.org/Graphics/SVG/1.1/DTD/svg11.dtd"><svg t="1721119580206" class="icon" viewBox="0 0 1024 1024" version="1.1" xmlns="http://www.w3.org/2000/svg" p-id="18616" xmlns:xlink="http://www.w3.org/1999/xlink" width="350" height="350"><path d="M597.333333 85.333333h-341.333333C187.733333 85.333333 128 140.8 128 213.333333v597.333334c0 72.533333 59.733333 128 128 128h426.666667c72.533333 0 128-55.466667 128-128V298.666667l-213.333334-213.333334z m170.666667 725.333334c0 46.933333-38.4 85.333333-85.333333 85.333333H256c-46.933333 0-85.333333-38.4-85.333333-85.333333V213.333333c0-46.933333 38.4-85.333333 85.333333-85.333333h298.666667v213.333333h213.333333v469.333334z m-320-234.666667h128c12.8 0 21.333333 8.533333 21.333333 21.333333s-8.533333 21.333333-21.333333 21.333334h-128v128c0 12.8-8.533333 21.333333-21.333333 21.333333s-21.333333-8.533333-21.333334-21.333333v-128h-128c-12.8 0-21.333333-8.533333-21.333333-21.333334s8.533333-21.333333 21.333333-21.333333h128v-128c0-12.8 8.533333-21.333333 21.333334-21.333333s21.333333 8.533333 21.333333 21.333333v128z" fill="#ffffff" p-id="18617"></path></svg>