<?xml version="1.0" standalone="no"?><!DOCTYPE svg PUBLIC "-//W3C//DTD SVG 1.1//EN" "http://www.w3.org/Graphics/SVG/1.1/DTD/svg11.dtd"><svg t="1721183459496" class="icon" viewBox="0 0 1024 1024" version="1.1" xmlns="http://www.w3.org/2000/svg" p-id="8066" width="400" height="400" xmlns:xlink="http://www.w3.org/1999/xlink"><path d="M804.6 295.7v443.7c0 28.9 20.1 53.4 48.4 53.4 34.5 0 63.4 5.1 84.4-10.7 5-3.7 15.7-17 15.7-24.4V280.6c0-16.6-24-36.7-53.4-36.7h-38.4c-31.7 0-56.7 20.9-56.7 51.8z m-198.5 98.4v348.6c0 26.8 21.9 50.1 48.4 50.1 34 0 71.8 6.1 90.4-16.4 7.3-8.8 13-23 13-38.7V399.1c0-31.4-22.5-55.1-50-55.1h-51.7c-27.2 0-50.1 23-50.1 50.1z m-198.5 98.4v253.6c0 22 21.9 46.7 48.4 46.7 24.7 0 58.8 3.4 76.2-5.5 4.6-2.3 4.1-2.4 7.7-5.6 13.7-12.2 19.5-24.7 19.5-47.3V499.2c0-18-8-35.7-18-43.7-19.5-15.5-42.9-13.1-70.4-13.1-18.9 0-34 3.2-44.6 12.2-9.7 8.2-18.8 20.8-18.8 37.9zM209 589.2v155.1c0 25.3 23.7 48.4 45.1 48.4h60.1c15.4 0 27.9-11 35.5-19.6 8.4-9.5 11.2-26.4 11.2-43.8V606c0-73.1-52.9-63.4-101.8-63.4-7.2 0-13.7 1.7-19.4 4-16.2 6.3-30.7 25.5-30.7 42.6zM277.2 235.6c-3.3-3.3-7.8-5.2-12.4-5.2-4.7 0-9.1 1.9-12.4 5.2l-75.7 75.7-75.7-75.7c-6.9-6.9-18-6.9-24.9 0-6.9 6.9-6.9 18 0 24.9l75.7 75.7-75.7 75.7c-3.3 3.3-5.2 7.8-5.2 12.4 0 4.7 1.9 9.1 5.2 12.4 3.3 3.3 7.8 5.2 12.4 5.2 4.5 0 9-1.7 12.4-5.2l75.7-75.7 75.7 75.7c3.4 3.4 7.9 5.2 12.4 5.2s9-1.7 12.4-5.2c3.3-3.3 5.2-7.8 5.2-12.4 0-4.7-1.9-9.1-5.2-12.4l-75.7-75.7 75.7-75.7c3.3-3.3 5.2-7.8 5.2-12.4 0-4.7-1.8-9.2-5.1-12.5z" p-id="8067" fill="#ffffff"></path></svg>