<?xml version="1.0" standalone="no"?><!DOCTYPE svg PUBLIC "-//W3C//DTD SVG 1.1//EN" "http://www.w3.org/Graphics/SVG/1.1/DTD/svg11.dtd"><svg t="1721097405332" class="icon" viewBox="0 0 1024 1024" version="1.1" xmlns="http://www.w3.org/2000/svg" p-id="4324" xmlns:xlink="http://www.w3.org/1999/xlink" width="200" height="200"><path d="M803.5 959.6H219.4c-3 0-5.9-0.1-8.8-0.5-2.3-0.2-4.9-0.7-7.6-1.2-3.2-0.7-5.9-1.4-8.4-2.3-2.1-0.6-4.8-1.7-7.4-2.9-2.4-1.1-4.8-2.3-7.2-3.7-2.1-1.2-4.4-2.6-6.6-4.2-2.1-1.4-4.3-3.2-6.3-5-1.8-1.6-3.7-3.4-5.6-5.3-1.8-1.9-3.5-4-5.2-6.1-1.6-2-3.1-4.1-4.6-6.4-1.4-2.2-2.7-4.6-4-7-1.2-2.4-2.3-4.7-3.3-7.1-1.2-3.1-2.1-5.7-2.9-8.3-0.7-2.3-1.4-5.2-2-8.1-0.5-2.5-0.9-5.3-1.2-8.2-0.3-2.6-0.4-5.5-0.4-8.4V256.2c0-2.9 0.2-5.8 0.5-8.6 0.2-2.6 0.6-5.4 1.2-8.2 0.5-2.7 1.2-5.6 2.1-8.4 0.6-2.2 1.5-4.7 2.5-7.2 1.2-2.9 2.3-5.2 3.4-7.4 1.4-2.7 2.7-5.1 4.3-7.4 1.3-2.1 2.9-4.3 4.6-6.4 1.6-2 3.3-4 5-5.8 2.1-2.2 4-4 6-5.8 1.7-1.5 3.9-3.2 6.2-4.8 1.9-1.3 4.1-2.8 6.4-4.1 2.4-1.4 4.8-2.6 7.3-3.7s5-2.1 7.5-2.9c2.7-0.9 5.3-1.6 8-2.2 2.7-0.6 5.4-1 8.2-1.3 2.7-0.3 5.5-0.4 8.4-0.4H274c11.9 0 21.5 9.6 21.5 21.5s-9.6 21.5-21.5 21.5h-54.6c-1.3 0-2.6 0.1-3.9 0.2-1.2 0.1-2.4 0.3-3.6 0.6-1.2 0.3-2.5 0.6-3.7 1-1 0.3-2.2 0.8-3.4 1.3-1 0.4-2.1 1-3.2 1.6-1 0.6-2.1 1.3-3.1 2-1.2 0.8-2.1 1.5-2.9 2.3-1.3 1.1-2.2 2-3.1 3-0.7 0.8-1.6 1.8-2.5 2.9-0.8 1-1.5 2-2.2 3.1-0.9 1.3-1.4 2.4-2.1 3.6-0.5 1.1-1.2 2.5-1.8 3.9-0.3 0.7-0.7 2-1.1 3.3-0.5 1.6-0.8 2.8-1 4.1-0.3 1.5-0.5 2.9-0.6 4.3-0.2 1.6-0.3 3.1-0.3 4.6v618.7c0 1.5 0.1 2.9 0.2 4.3 0.2 1.6 0.4 3 0.6 4.3 0.3 1.5 0.6 2.7 0.9 3.8 0.5 1.8 1 3.1 1.5 4.4 0.4 0.8 1 2.2 1.7 3.5 0.5 1 1.1 2.1 1.8 3.2 0.8 1.2 1.5 2.3 2.3 3.3 0.9 1.1 1.7 2.1 2.6 3.1 0.9 0.9 1.8 1.8 2.8 2.7 1.1 0.9 2 1.7 2.9 2.3 1.1 0.8 2.1 1.4 3.1 2 1.3 0.8 2.4 1.3 3.5 1.8s2.1 0.9 3.1 1.2c1.7 0.6 2.9 0.9 4.1 1.1 0.8 0.2 2.1 0.4 3.4 0.5 1.6 0.2 2.7 0.2 3.9 0.2h584.1c1.2 0 2.3 0 3.5-0.2 1.6-0.2 2.9-0.4 4.1-0.6 0.9-0.2 2.1-0.5 3.3-0.9 1.4-0.5 2.4-0.8 3.4-1.3 1.4-0.6 2.4-1.1 3.4-1.7 1.2-0.7 2.3-1.4 3.3-2.1 1.1-0.8 2.1-1.6 3.1-2.4 0.7-0.6 1.6-1.5 2.5-2.4 1.2-1.3 2-2.3 2.9-3.3 0.6-0.8 1.3-1.7 1.9-2.7 1.1-1.7 1.7-2.7 2.2-3.8 0.6-1.1 1.1-2.3 1.6-3.5 0.6-1.6 1.1-2.8 1.4-4.1 0.3-1.2 0.7-2.5 0.9-3.8 0.3-1.6 0.5-3.1 0.7-4.5 0.1-1.4 0.2-2.9 0.2-4.4V256.2c0-1.5 0-2.9-0.2-4.4-0.1-1.5-0.4-2.9-0.6-4.4-0.3-1.5-0.6-2.9-1-4.2-0.3-1.1-0.8-2.3-1.3-3.5-0.6-1.6-1.2-2.8-1.8-4-0.5-1-1.1-2-1.8-3.1-1.1-1.7-1.7-2.6-2.4-3.5-0.7-0.8-1.5-1.9-2.5-2.9s-1.9-1.9-2.8-2.7c-0.9-0.7-1.9-1.6-2.9-2.3-1.1-0.8-2.3-1.5-3.5-2.2-0.7-0.4-1.8-1-3-1.5-1.2-0.6-2.4-1-3.7-1.4-0.8-0.3-2.1-0.6-3.4-0.9-1.3-0.3-2.5-0.5-3.7-0.6-1.3-0.1-2.6-0.2-3.9-0.2h-54.6c-11.9 0-21.5-9.6-21.5-21.5s9.6-21.5 21.5-21.5h54.6c2.8 0 5.5 0.1 8.3 0.4 2.9 0.3 5.7 0.8 8.4 1.4 2.5 0.5 5.1 1.2 7.6 2 2.9 1 5.4 2 7.8 3 2.4 1.1 4.8 2.3 7.1 3.6 2.5 1.5 4.7 2.9 6.8 4.4 2.1 1.5 4.2 3.1 6.2 4.9 2.1 1.8 4.1 3.7 5.9 5.6 1.6 1.7 3.3 3.7 4.9 5.7 2 2.5 3.6 4.8 5.1 7.3 1.1 1.6 2.5 4 3.8 6.6 1.3 2.5 2.4 5 3.4 7.5 0.9 2.2 1.8 4.8 2.6 7.4 0.8 2.8 1.5 5.6 2 8.3 0.5 2.6 0.9 5.3 1.2 8.1 0.3 2.8 0.4 5.7 0.4 8.6v618.7c0 2.9-0.1 5.8-0.4 8.6-0.3 2.8-0.7 5.5-1.2 8.2-0.5 2.5-1.2 5.3-1.9 7.9-0.8 2.9-1.8 5.5-2.8 8.1-0.8 2.2-2 4.7-3.2 7.1-1.3 2.5-2.7 5-4.3 7.3-1.1 1.7-2.7 4-4.4 6.2-1.8 2.3-3.5 4.3-5.4 6.2-1.5 1.6-3.4 3.5-5.4 5.2-2.2 1.9-4.3 3.6-6.4 5.1-2.2 1.6-4.4 3-6.8 4.3-2.2 1.3-4.7 2.5-7.2 3.6-2.3 1.1-5 2.1-7.7 3-2.2 0.7-4.8 1.4-7.5 2-2.9 0.6-5.6 1.1-8.4 1.3-2.5 0.4-5.4 0.6-8.3 0.6z" fill="#BFCBD9" p-id="4325"></path><path d="M417.2 185.7h-24.4c-3 0.1-10 5.5-11.6 9-1.6 6.9-4.9 20.3-8.7 35.5l-2 8c-0.4 1.4-0.1 2 0.4 2.7 1.1 1.4 3 2.2 3.8 2.2v21.5-21.5c11.8-0.3 187.9-0.1 251.8 0h22.4c0.5-0.1 2.2-0.9 3.1-2.1 0.2-0.3 0.6-0.9 0.2-3l-10.8-44.3s-3.3-8-17.1-8h-33.9c-16.6 0-31.1-11.5-35.4-27.8-2.1-8.3-8.6-32.5-11.2-42.5-0.8-1.7-7-7.4-14.7-7.4H493c-7.4 0-13.4 5.9-14.4 8.1-2 7.4-6.8 26.7-9.3 36.7l-1.2 4.7c-4.2 17-18.7 28.1-36.9 28.1l-14 0.1zM374.7 286c-14.2 0-28.7-7.1-37.7-18.7-8.8-11.3-11.8-25.4-8.2-39.6l2-8c3.8-15.2 7.1-28.3 9-36.3 4.5-18.9 28.7-40.8 53-40.8h34.9v-0.2c2.6-10.4 7.5-30.3 9.7-38.5 5.3-18.8 28-39 55.6-39h36.3c28.2 0.1 51.1 20.5 56 39.3 2.3 8.6 7.5 27.9 10.2 38.4h28.4c36.3 0 55.2 24.4 59.2 40.8l10.8 44.4c3.5 14.4 0.6 28.6-8.3 39.8-8.9 11.3-23 18.3-36.7 18.3h-22.4c-63.5-0.1-238.9-0.3-250.7 0l-1.1 0.1zM656.6 676.3h-124v-66.9h124c6 0 11.6-2.3 15.8-6.5 4-4 6.1-9.2 6.1-14.8 0-5.5-2.1-10.8-6.1-14.7-4.2-4.2-9.8-6.5-15.8-6.5H532.3l-0.6-5.6 140.2-140.2c8.6-8.5 8.8-22.2 0.5-30.5-3.9-3.9-9.1-6.1-14.8-6.1-5.9 0-11.5 2.3-15.8 6.6L511.4 521.6 380.9 391.2c-4.2-4.3-9.8-6.6-15.7-6.6-5.6 0-10.9 2.1-14.8 6.1-3.9 3.9-6.1 9.2-6.1 14.8 0 5.9 2.3 11.5 6.6 15.7l139.3 138v7.7h-124c-6 0-11.6 2.3-15.8 6.5-4 4-6.1 9.2-6.1 14.7 0 11.7 9.8 21.2 21.9 21.2h123.9v66.9h-124c-6 0-11.6 2.3-15.8 6.5-4 4-6.1 9.2-6.1 14.7 0 11.7 9.8 21.2 21.9 21.2H490v87.5c0 12.1 9.5 21.9 21.2 21.9s21.2-9.8 21.2-21.9v-87.5h124c6 0 11.6-2.3 15.8-6.5 4-4 6.1-9.2 6.1-14.7s-2.2-10.7-6.1-14.7c-4-4.1-9.6-6.4-15.6-6.4z" fill="#BFCBD9" p-id="4326"></path></svg>