<?xml version="1.0" standalone="no"?><!DOCTYPE svg PUBLIC "-//W3C//DTD SVG 1.1//EN" "http://www.w3.org/Graphics/SVG/1.1/DTD/svg11.dtd"><svg t="1715664547917" class="icon" viewBox="0 0 1024 1024" version="1.1" xmlns="http://www.w3.org/2000/svg" p-id="7920" xmlns:xlink="http://www.w3.org/1999/xlink" width="200" height="200"><path d="M325.450697 862.306736" fill="#2B84EC" p-id="7921"></path><path d="M882.088359 862.306736" fill="#2B84EC" p-id="7922"></path><path d="M236.00336 877.09995" fill="#2B84EC" p-id="7923"></path><path d="M960.182765 877.09995" fill="#2B84EC" p-id="7924"></path><path d="M63.645221 788.684697" fill="#2B84EC" p-id="7925"></path><path d="M958.462624 788.684697" fill="#2B84EC" p-id="7926"></path><path d="M64.84932 858.69444" fill="#2B84EC" p-id="7927"></path><path d="M959.494709 858.69444" fill="#2B84EC" p-id="7928"></path><path d="M842.009071 396.492525l-296.036284-295.86427c-18.749538-18.749538-49.196036-18.749538-67.945574 0l-295.86427 296.036284c-26.662187 26.662187-4.472367 73.278011 30.446498 73.278011l146.728036 0 0 420.5745c0 25.974131 20.985721 47.131866 47.131866 47.131866l211.233328 0c25.974131 0 47.131866-20.985721 47.131866-47.131866L664.834537 469.770536 811.906602 469.770536C847.513523 469.770536 867.811188 422.63867 842.009071 396.492525z" fill="#2B84EC" p-id="7929"></path></svg>