<?xml version="1.0" standalone="no"?><!DOCTYPE svg PUBLIC "-//W3C//DTD SVG 1.1//EN" "http://www.w3.org/Graphics/SVG/1.1/DTD/svg11.dtd"><svg t="1721115998875" class="icon" viewBox="0 0 1201 1024" version="1.1" xmlns="http://www.w3.org/2000/svg" p-id="4336" xmlns:xlink="http://www.w3.org/1999/xlink" width="410.498046875" height="350"><path d="M718.73284854 844.17023779H120.38411622V91.1920581A29.01513691 29.01513691 0 1 0 62 91.1920581v781.99331661a29.01513691 29.01513691 0 0 0 29.01513691 29.01513603h627.71771163a29.01513691 29.01513691 0 0 0 0-58.38411621z" p-id="4337" fill="#ffffff"></path><path d="M179.12207568 797.10910156v-318.45881689h128.09121328v318.45881689zM372.32042451 797.10910156v-530.76469395h128.09121328v530.76469395zM565.51877334 797.10910156V419.55848281h128.09121328v377.55061875zM886.80833457 136.83782217v377.19677549l-128.0912124 35.38431299V136.83782217h128.0912124z" p-id="4338" fill="#ffffff"></path><path d="M886.45449219 962a231.41340703 231.41340703 0 1 0-231.41340703-231.41340703 231.41340703 231.41340703 0 0 0 231.41340703 231.41340703z m0-420.3656376a188.59838818 188.59838818 0 1 1-187.53685928 188.95223057 188.95223143 188.95223143 0 0 1 187.53685928-188.95223057z" p-id="4339" fill="#ffffff"></path><path d="M873.3622959 727.04816211V734.47886797l55.90721425 55.90721425a16.98447041 16.98447041 0 1 0 23.70748975-23.70748974l-50.24572383-50.24572471v-135.168075a16.63062714 16.63062714 0 0 0-28.66129365-13.79988193 16.63062714 16.63062714 0 0 0-4.9538039 9.90760694v144.36799716z" p-id="4340" fill="#ffffff"></path></svg>