<?xml version="1.0" standalone="no"?><!DOCTYPE svg PUBLIC "-//W3C//DTD SVG 1.1//EN" "http://www.w3.org/Graphics/SVG/1.1/DTD/svg11.dtd"><svg t="1721098319610" class="icon" viewBox="0 0 1024 1024" version="1.1" xmlns="http://www.w3.org/2000/svg" p-id="6415" xmlns:xlink="http://www.w3.org/1999/xlink" width="200" height="200"><path d="M450.7648 768l177.3568 102.4H307.2a51.2 51.2 0 0 1 0-102.4h143.5648zM716.8 358.4l221.696 128v256L716.8 870.4l-221.696-128v-256L716.8 358.4z m102.4-204.8a51.2 51.2 0 0 1 51.2 51.2v191.0784L716.8 307.2 450.7648 460.8l-0.0512 256H204.8a51.2 51.2 0 0 1-51.2-51.2V204.8a51.2 51.2 0 0 1 51.2-51.2h614.4z m-102.4 358.4a102.4 102.4 0 1 0 0 204.8 102.4 102.4 0 0 0 0-204.8z m0 51.2a51.2 51.2 0 1 1 0 102.4 51.2 51.2 0 0 1 0-102.4z" fill="#798695" p-id="6416"></path></svg>