<?xml version="1.0" standalone="no"?><!DOCTYPE svg PUBLIC "-//W3C//DTD SVG 1.1//EN" "http://www.w3.org/Graphics/SVG/1.1/DTD/svg11.dtd"><svg t="1715664584785" class="icon" viewBox="0 0 1024 1024" version="1.1" xmlns="http://www.w3.org/2000/svg" p-id="8969" xmlns:xlink="http://www.w3.org/1999/xlink" width="200" height="200"><path d="M325.450697 862.306736" fill="#d81e06" p-id="8970"></path><path d="M882.088359 862.306736" fill="#d81e06" p-id="8971"></path><path d="M236.00336 877.09995" fill="#d81e06" p-id="8972"></path><path d="M960.182765 877.09995" fill="#d81e06" p-id="8973"></path><path d="M63.645221 788.684697" fill="#d81e06" p-id="8974"></path><path d="M958.462624 788.684697" fill="#d81e06" p-id="8975"></path><path d="M64.84932 858.69444" fill="#d81e06" p-id="8976"></path><path d="M959.494709 858.69444" fill="#d81e06" p-id="8977"></path><path d="M840.28893 627.335461l-296.036284 295.86427c-18.749538 18.749538-49.196036 18.749538-67.945574 0l-295.86427-296.036284c-26.662187-26.662187-4.472367-73.278011 30.446498-73.278011l146.728036 0L357.617336 133.48295c0-25.974131 20.985721-47.131866 47.131866-47.131866l211.233328 0c25.974131 0 47.131866 20.985721 47.131866 47.131866l0 420.5745L810.186461 554.05745C845.793381 554.05745 866.091047 601.36133 840.28893 627.335461z" fill="#d81e06" p-id="8978"></path></svg>