<?xml version="1.0" standalone="no"?><!DOCTYPE svg PUBLIC "-//W3C//DTD SVG 1.1//EN" "http://www.w3.org/Graphics/SVG/1.1/DTD/svg11.dtd"><svg t="1721184779842" class="icon" viewBox="0 0 1024 1024" version="1.1" xmlns="http://www.w3.org/2000/svg" p-id="13761" width="400" height="400" xmlns:xlink="http://www.w3.org/1999/xlink"><path d="M677.205333 73.386667h-330.410666c-13.312 0-23.893333-10.581333-23.893334-23.893334V23.893333c0-13.312 10.581333-23.893333 23.893334-23.893333h330.410666c13.312 0 23.893333 10.581333 23.893334 23.893333v25.6c0 13.312-10.581333 23.893333-23.893334 23.893334z" p-id="13762" fill="#ffffff"></path><path d="M870.741333 0h-50.517333c-11.605333 0-22.186667 7.509333-25.941333 18.432l-23.210667 67.584c-13.653333 39.594667-50.858667 66.218667-92.842667 66.218667H372.053333c-41.984 0-79.189333-26.624-92.842666-66.218667L255.658667 18.432C251.904 7.509333 241.664 0 230.058667 0H153.258667C98.986667 0 55.296 44.032 55.296 97.962667v827.733333c0 54.272 44.032 97.962667 97.962667 97.962667h717.482666c54.272 0 97.962667-44.032 97.962667-97.962667V97.962667C968.704 44.032 925.013333 0 870.741333 0z m-106.837333 514.730667c0 8.533333-7.168 15.701333-15.701333 15.701333h-199.68v68.266667h199.68c8.533333 0 15.701333 7.168 15.701333 15.701333v41.984c0 8.533333-7.168 15.701333-15.701333 15.701333h-199.68v199.68c0 8.533333-7.168 15.701333-15.701334 15.701334h-41.984c-8.533333 0-15.701333-7.168-15.701333-15.701334v-199.68H275.797333c-8.533333 0-15.701333-7.168-15.701333-15.701333V614.4c0-8.533333 7.168-15.701333 15.701333-15.701333h199.68v-68.266667H275.797333c-8.533333 0-15.701333-7.168-15.701333-15.701333v-41.984c0-8.533333 7.168-15.701333 15.701333-15.701334h145.066667L282.965333 319.488c-6.144-6.144-6.144-16.042667 0-22.186667l29.696-29.696c6.144-6.144 16.042667-6.144 22.186667 0l176.810667 176.810667 176.810666-176.810667c6.144-6.144 16.042667-6.144 22.186667 0l29.696 29.696c6.144 6.144 6.144 16.042667 0 22.186667l-137.557333 137.557333h145.066666c8.533333 0 15.701333 7.168 15.701334 15.701334v41.984z" p-id="13763" fill="#ffffff"></path></svg>