<?xml version="1.0" standalone="no"?><!DOCTYPE svg PUBLIC "-//W3C//DTD SVG 1.1//EN" "http://www.w3.org/Graphics/SVG/1.1/DTD/svg11.dtd"><svg t="1721118170015" class="icon" viewBox="0 0 1024 1024" version="1.1" xmlns="http://www.w3.org/2000/svg" p-id="10440" xmlns:xlink="http://www.w3.org/1999/xlink" width="350" height="350"><path d="M222.006 116.633h421.38c58.178 0 79.01 20.832 79.01 79.009V353.66h52.674V169.305c0-58.177-47.17-105.345-105.345-105.345H195.67c-58.177 0-105.344 47.169-105.344 105.345v342.373c0 58.177 47.168 105.345 105.344 105.345 0 0 0.026-35.158 0.026-54.525-38.297-6.224-52.699-28.78-52.699-77.156v-289.7c0-58.177 20.834-79.009 79.01-79.009z m605.737 289.7H353.688c-58.177 0-105.345 47.169-105.345 105.345v342.387c0 58.177 47.169 105.345 105.345 105.345h474.055c58.177 0 105.345-47.17 105.345-105.345V511.679c0-58.177-47.17-105.347-105.345-105.347z m52.671 421.383c0 58.188-20.831 79.021-79.008 79.021H380.024c-58.177 0-79.009-20.832-79.009-79.021V538.014c0-58.177 20.832-79.008 79.009-79.008h421.382c58.177 0 79.008 20.831 79.008 79.008v289.702z m-210.69-316.037L590.716 643.36c-4.81-12.165-79.01-131.682-79.01-131.682h-52.672l79.01 131.682h-79.01v52.672l104.06-0.308 1.285 52.981H459.033v52.673h105.345v52.686h52.673v-52.686h105.345v-52.673H617.051v-52.674h105.345V643.36h-79.01l79.01-131.682h-52.671zM511.707 169.305l-79.009 131.682c-4.81-12.165-79.01-131.682-79.01-131.682h-52.672l79.009 131.682h-79.009v52.674h263.363v-52.674H485.37l79.01-131.682h-52.673z" p-id="10441" fill="#ffffff"></path></svg>