<?xml version="1.0" standalone="no"?><!DOCTYPE svg PUBLIC "-//W3C//DTD SVG 1.1//EN" "http://www.w3.org/Graphics/SVG/1.1/DTD/svg11.dtd"><svg t="1721116061454" class="icon" viewBox="0 0 1024 1024" version="1.1" xmlns="http://www.w3.org/2000/svg" p-id="6470" xmlns:xlink="http://www.w3.org/1999/xlink" width="350" height="350"><path d="M899.758 823.198 193.177 823.198c-55.072 0-99.865-34.17-99.865-76.19L93.312 216.252c0-8.43-6.822-15.25-15.237-15.25-8.43 0-15.252 6.82-15.252 15.25l0 530.756c0 58.82 58.485 106.665 130.355 106.665l706.581 0c8.43 0 15.25-6.825 15.25-15.255S908.188 823.198 899.758 823.198zM924.983 593.618c-4.865 0-9.475 1.06-13.625 2.95l-184.23-131.585c0.1-1.04 0.15-2.092 0.15-3.16 0-18.21-14.735-32.947-32.95-32.947-18.21 0-32.95 14.735-32.95 32.947 0 1.068 0.06 2.12 0.155 3.16L477.309 596.568c-4.152-1.89-8.765-2.95-13.63-2.95-3.628 0-7.112 0.595-10.377 1.68L199.407 369.624c0.44-2.147 0.67-4.37 0.67-6.645 0-18.212-14.752-32.95-32.95-32.95s-32.95 14.735-32.95 32.95c0 18.212 14.752 32.947 32.95 32.947 3.627 0 7.115-0.592 10.377-1.675l253.894 225.677c-0.438 2.14-0.667 4.365-0.667 6.64 0 18.21 14.752 32.95 32.95 32.95 18.212 0 32.95-14.74 32.95-32.95 0-1.065-0.055-2.12-0.155-3.16l184.227-131.582c4.155 1.888 8.765 2.948 13.63 2.948s9.475-1.06 13.625-2.948l184.229 131.582c-0.1 1.04-0.155 2.095-0.155 3.16 0 18.21 14.735 32.95 32.95 32.95s32.955-14.74 32.955-32.95S943.198 593.618 924.983 593.618z" fill="#ffffff" p-id="6471"></path><path d="M720.72192 149.51936l21.00224 0.48128 99.59936 0 22.6816-0.48128-0.59904 20.28032 0 175.68256c0 6.00064-0.32256 9.84064-0.96256 11.52s-3.5584 4.48-8.76032 8.40192-18.88256 6.35904-41.04192 7.3216c-0.15872-3.28192-0.50176-6.59968-1.01888-9.9584s-1.7408-6.99904-3.6608-10.92096l-5.4016-11.27936c11.91936 1.03936 19.50208 1.25952 22.73792 0.66048s5.25824-1.47968 6.06208-2.64192 1.19808-4.10112 1.19808-8.82176L832.55808 292.1984l-82.44224 0c-1.52064 6.79936-3.33824 14.16192-5.45792 22.08256s-6.02112 16.55808-11.6992 25.92256-11.96032 16.88064-18.8416 22.55872l-9.84064 8.51968c-2.88256-3.84-5.80096-7.48032-8.76032-10.92096s-8.0384-7.52128-15.24224-12.24192c3.59936-2.24256 8.73984-5.78048 15.42144-10.61888s12.42112-13.55776 17.21856-26.15808 7.61856-29.10208 8.45824-49.50016 1.1776-34.88256 1.01888-43.43808l-0.83968-51.72224L720.72192 149.51936zM751.44192 265.20064l81.12128 0 0-27.36128-80.2816 0L751.44192 265.20064zM752.2816 210.00192l80.2816 0 0-31.80032-80.2816 0L752.2816 210.00192z" fill="#ffffff" p-id="6472"></path></svg>