<?xml version="1.0" standalone="no"?><!DOCTYPE svg PUBLIC "-//W3C//DTD SVG 1.1//EN" "http://www.w3.org/Graphics/SVG/1.1/DTD/svg11.dtd"><svg t="1721115726504" class="icon" viewBox="0 0 1024 1024" version="1.1" xmlns="http://www.w3.org/2000/svg" p-id="14081" width="350" height="350" xmlns:xlink="http://www.w3.org/1999/xlink"><path d="M979.74 1017.966H89.118c-44.859 0-83.305-38.675-83.305-83.799V44.692c0-19.329 19.223-38.658 38.446-38.658s38.445 19.329 38.445 38.658v895.941l897.036 6.432c19.224 0 38.446 19.328 38.446 38.675s-19.222 32.226-38.446 32.226z" fill="#ffffff" p-id="14082"></path><path d="M178.818 831.057V702.151c0-19.347 19.222-38.692 38.445-38.692s38.445 19.346 38.445 38.692v128.905c0 19.329-19.222 38.657-38.445 38.657s-38.445-12.879-38.445-38.656z m198.622 0V599.006c0-19.328 19.223-38.657 38.446-38.657 19.222 0 38.445 19.329 38.445 38.657v232.051c0 19.329-19.223 38.657-38.445 38.657-25.618 0-38.446-12.88-38.446-38.657z m192.228 0V702.151c0-19.347 19.223-38.692 38.445-38.692 19.224 0 38.445 19.346 38.445 38.692v128.905c0 19.329-19.222 38.657-38.445 38.657-19.222 0.001-38.445-12.879-38.445-38.656z m198.623 0V637.682c0-19.329 19.223-38.676 38.446-38.676 19.222 0 38.444 19.347 38.444 38.676v193.375c0 19.329-19.223 38.657-38.444 38.657-19.223 0-38.446-12.88-38.446-38.657z m32.031-734.792H659.368c-19.223 0-38.445 19.346-38.445 38.675s19.223 38.675 38.445 38.675h57.669L531.223 360.524l-70.478-70.884c-12.809-19.346-38.445-19.346-57.668-6.466L191.645 502.326c-12.826 12.898-12.826 38.676 0 51.557 12.81 19.346 38.446 19.346 51.237 0l185.832-186.91 64.063 64.453 6.396 6.448v6.449c12.827 12.88 38.446 12.88 51.272 0l217.846-212.704v58.021c0 19.329 19.223 38.658 38.446 38.658 19.222 0 38.444-19.329 38.444-38.658V141.371c0.001-19.329-19.222-45.106-44.859-45.106z" fill="#ffffff" p-id="14083"></path></svg>