<?xml version="1.0" standalone="no"?><!DOCTYPE svg PUBLIC "-//W3C//DTD SVG 1.1//EN" "http://www.w3.org/Graphics/SVG/1.1/DTD/svg11.dtd"><svg t="1721100257473" class="icon" viewBox="0 0 1024 1024" version="1.1" xmlns="http://www.w3.org/2000/svg" p-id="6911" xmlns:xlink="http://www.w3.org/1999/xlink" width="250" height="250"><path d="M826.2 696.4c-71.6 0-129.8 58.2-129.8 129.8S754.6 956 826.2 956 956 897.8 956 826.2s-58.2-129.8-129.8-129.8z m37.1 185.4h-74.2c-10.2 0-18.5-8.3-18.5-18.5s8.3-18.5 18.5-18.5h74.2c10.2 0 18.5 8.3 18.5 18.5s-8.3 18.5-18.5 18.5z m0-74.1h-74.2c-10.2 0-18.5-8.3-18.5-18.5s8.3-18.5 18.5-18.5h74.2c10.2 0 18.5 8.3 18.5 18.5 0 10.1-8.3 18.5-18.5 18.5z" p-id="6912" fill="#ffffff"></path><path d="M826.2 659.3c34.4 0 66.4 10.5 93 28.3C942.8 633.5 956 573.8 956 511c0-245.4-199.6-445-445-445S66 265.6 66 511s199.6 445 445 445c62.8 0 122.5-13.2 176.7-36.8-17.9-26.6-28.3-58.6-28.3-93-0.1-92.2 74.6-166.9 166.8-166.9z m-296.7 80.9c0 10.2-8.3 18.5-18.5 18.5s-18.5-8.3-18.5-18.5V603.7H363.4l31 45.1c5.8 8.4 3.7 20-4.8 25.8-3.2 2.2-6.9 3.3-10.5 3.3-5.9 0-11.7-2.8-15.3-8l-51-74.2c-3.9-5.7-4.3-13-1.1-19.1 3.2-6.1 9.5-9.9 16.4-9.9h164.3V455.4H329c-10.2 0-18.5-8.3-18.5-18.5s8.3-18.5 18.5-18.5h163.4l-135-115.7c-7.8-6.7-8.7-18.4-2-26.1 6.7-7.7 18.4-8.7 26.1-2l129.5 111 129.5-111c7.8-6.6 19.5-5.7 26.1 2 6.7 7.7 5.8 19.5-2 26.1l-135 115.7h142l-31-45.1c-5.8-8.4-3.7-20 4.8-25.8 8.5-5.8 20-3.6 25.8 4.8l51 74.2c3.9 5.7 4.3 13 1.1 19.1-3.2 6.1-9.5 9.9-16.4 9.9H529.5v111.3h176.6c10.2 0 18.5 8.3 18.5 18.5s-8.3 18.5-18.5 18.5H529.5v136.4z" p-id="6913" fill="#ffffff"></path></svg>