<?xml version="1.0" standalone="no"?><!DOCTYPE svg PUBLIC "-//W3C//DTD SVG 1.1//EN" "http://www.w3.org/Graphics/SVG/1.1/DTD/svg11.dtd"><svg t="1732930447780" class="icon" viewBox="0 0 1024 1024" version="1.1" xmlns="http://www.w3.org/2000/svg" p-id="1801" xmlns:xlink="http://www.w3.org/1999/xlink" width="40" height="40"><path d="M512.005 1012c-218.612 0-395.833-177.221-395.833-395.833S512.005 12 512.005 12s395.834 385.554 395.834 604.167S730.618 1012 512.005 1012z m0-875s-312.5 306.578-312.5 479.167 139.911 312.5 312.5 312.5 312.5-139.911 312.5-312.5S512.005 137 512.005 137z m0 708.333c-103.553 0-187.5-83.946-187.5-187.5a189.6 189.6 0 0 1 1.23-21.593c123.555 11 110.853-82.573 207.1-82.573 61.387 0 25.388 27.547 129.253-8.236 34.934-17.679 37.413 70.236 37.413 112.4 0.004 103.556-83.942 187.502-187.496 187.502z" fill="#00D2FF" p-id="1802"></path></svg>