<?xml version="1.0" standalone="no"?><!DOCTYPE svg PUBLIC "-//W3C//DTD SVG 1.1//EN" "http://www.w3.org/Graphics/SVG/1.1/DTD/svg11.dtd"><svg t="1732930452702" class="icon" viewBox="0 0 1086 1024" version="1.1" xmlns="http://www.w3.org/2000/svg" p-id="1958" xmlns:xlink="http://www.w3.org/1999/xlink" width="42.421875" height="40"><path d="M956.16779 972.374332H115.287294c-33.190648 0-60.12633-32.467457-60.126331-72.737761V464.174256c0-1.636695 0.342564-3.032326 0.380627-4.427958a125.080276 125.080276 0 0 1 16.937888-68.309804h926.153564c10.962049 19.386586 16.836388 41.221871 16.887138 63.501221 0.482127 3.070389 0.67244 6.153465 0.773941 9.236541V899.636571c0 40.257617-26.935683 72.674324-60.07558 72.674324l-0.050751 0.063437zM235.349641 611.895476c-28.673878-0.012688-53.351175 20.236653-58.946387 48.352278-5.595212 28.115625 9.464917 56.269313 35.956535 67.231362s57.043254 1.687445 72.95345-22.165161c15.910196-23.852606 12.763682-55.60956-7.536409-75.871588a60.042593 60.042593 0 0 0-42.528689-17.559578h0.1015z m500.600231-60.265893h-60.316644V812.092431h60.316644V551.629583z m140.121374 0h-60.278581V812.092431h60.278581V551.629583zM173.30749 211.400067H897.906531l78.891226 140.362438H94.22595l79.03079-140.362438h0.05075z m70.073374-124.731368a73.762916 73.762916 0 0 1 58.78145-35.449033h467.067018a73.907554 73.907554 0 0 1 58.78145 35.449033l47.426086 84.511814H195.764465l47.616399-84.511814z m0 0" p-id="1959"></path></svg>