<?xml version="1.0" standalone="no"?><!DOCTYPE svg PUBLIC "-//W3C//DTD SVG 1.1//EN" "http://www.w3.org/Graphics/SVG/1.1/DTD/svg11.dtd"><svg t="1732930409577" class="icon" viewBox="0 0 1024 1024" version="1.1" xmlns="http://www.w3.org/2000/svg" p-id="1391" xmlns:xlink="http://www.w3.org/1999/xlink" width="40" height="40"><path d="M512 1024a358.4 358.4 0 0 1-358.4-358.4c0-131.9424 119.4496-353.792 358.4-665.6 238.9504 311.808 358.4 533.6576 358.4 665.6a358.4 358.4 0 0 1-358.4 358.4z m-281.6-358.4A281.6 281.6 0 0 0 512 947.2a25.6 25.6 0 1 0 0-51.2A230.4 230.4 0 0 1 281.6 665.6a25.6 25.6 0 1 0-51.2 0z" fill="#6B81F0" p-id="1392"></path></svg>