<?xml version="1.0" standalone="no"?><!DOCTYPE svg PUBLIC "-//W3C//DTD SVG 1.1//EN" "http://www.w3.org/Graphics/SVG/1.1/DTD/svg11.dtd"><svg t="1732930461737" class="icon" viewBox="0 0 1024 1024" version="1.1" xmlns="http://www.w3.org/2000/svg" p-id="2277" xmlns:xlink="http://www.w3.org/1999/xlink" width="40" height="40"><path d="M512 625.465806c-112.64-65.23871-234.694194-132.129032-234.694194 0a234.694194 234.694194 0 1 0 469.388388 0c0-132.129032-121.55871 65.403871-234.694194 0z" fill="#040000" p-id="2278"></path><path d="M799.215484 439.494194l-264.258065-378.714839a26.590968 26.590968 0 0 0-43.437419 0L224.784516 439.494194a330.322581 330.322581 0 0 0-63.091613 194.56C161.692903 821.842581 318.596129 974.451613 512 974.451613s350.141935-152.609032 350.637419-340.397419a334.616774 334.616774 0 0 0-63.421935-194.56zM512 908.387097c-156.572903 0-283.912258-123.045161-283.912258-274.332903a266.24 266.24 0 0 1 51.034839-156.572904L508.20129 150.296774a4.789677 4.789677 0 0 1 7.59742 0l229.739355 327.514839a267.230968 267.230968 0 0 1 50.704516 156.077419C795.747097 785.341935 668.242581 908.387097 512 908.387097z" fill="#040000" p-id="2279"></path></svg>