<?xml version="1.0" standalone="no"?><!DOCTYPE svg PUBLIC "-//W3C//DTD SVG 1.1//EN" "http://www.w3.org/Graphics/SVG/1.1/DTD/svg11.dtd"><svg t="1732930440896" class="icon" viewBox="0 0 1024 1024" version="1.1" xmlns="http://www.w3.org/2000/svg" p-id="1598" xmlns:xlink="http://www.w3.org/1999/xlink" width="40" height="40"><path d="M955.683847 551.341299h-383.942408a17.098235 17.098235 0 0 1-17.047043-17.047043V384.966255a44.281358 44.281358 0 0 0-38.394241-44.383742 42.847973 42.847973 0 0 0-46.943359 42.643203v151.017348a17.098235 17.098235 0 0 1-17.047042 17.047042h-383.942409A68.444133 68.444133 0 0 0 0.076788 619.580663v336.179973c0.102385 37.626356 30.613008 68.085787 68.239365 68.239364h887.367694A68.495326 68.495326 0 0 0 1023.923212 955.760636v-336.179973a68.392941 68.392941 0 0 0-68.239365-68.239364z m-486.327051 302.034695a42.643204 42.643204 0 1 1 42.643204-42.694396 42.233665 42.233665 0 0 1-41.772934 42.694396h-0.87027z m127.980803 0a42.643204 42.643204 0 1 1 42.643204-42.643204 42.233665 42.233665 0 0 1-41.824127 42.643204h-0.819077z m213.318403 0h-85.3376a42.643204 42.643204 0 0 1 0-85.286407h85.3376a42.694396 42.694396 0 0 1 0 85.286407zM512 170.777583a256.217567 256.217567 0 0 0-250.842374 204.769285 42.694396 42.694396 0 0 0 83.597061 17.047043 170.675199 170.675199 0 0 1 334.439434 0 42.643204 42.643204 0 1 0 83.59706-17.047043 256.217567 256.217567 0 0 0-250.791181-204.769285z m-381.382793 255.961606a42.694396 42.694396 0 0 0 42.643204-38.394241 340.838474 340.838474 0 0 1 677.427986 0 42.950357 42.950357 0 0 0 85.337599-9.368195 426.739189 426.739189 0 0 0-848.103184 0 43.052742 43.052742 0 0 0 42.694395 47.762436z" fill="#6B81F0" p-id="1599"></path></svg>